<svg width="203" height="202" viewBox="0 0 203 202" fill="none" xmlns="http://www.w3.org/2000/svg">
<g clip-path="url(#clip0_1353_8868)">
<rect width="201.185" height="201.185" transform="translate(0.916016)" fill="white" fill-opacity="0.2"/>
<path opacity="0.47" d="M32.007 86.3317C31.6418 84.705 30.2115 83.4951 28.5073 83.4951C28.1928 83.4951 27.8885 83.5357 27.6045 83.6171C26.7625 81.7768 24.9366 80.5059 22.8165 80.5059C22.2687 80.5059 21.7413 80.5873 21.2442 80.7499C20.1081 78.8182 18.0387 77.5371 15.665 77.5371C12.8551 77.5371 10.451 79.357 9.54822 81.9192C8.90915 81.5531 8.16864 81.3396 7.37741 81.3396C4.91242 81.3396 2.91406 83.3832 2.91406 85.9047C2.91406 86.0572 2.92421 86.1995 2.93435 86.352H32.007V86.3317Z" fill="#E6F7F9"/>
<path opacity="0.47" d="M89.1289 122.331C89.5651 120.46 91.2693 119.068 93.3082 119.068C93.6835 119.068 94.0487 119.118 94.3936 119.2C95.3979 117.095 97.5788 115.631 100.105 115.631C100.754 115.631 101.393 115.733 101.981 115.906C103.341 113.699 105.816 112.215 108.636 112.215C111.993 112.215 114.854 114.309 115.939 117.237C116.71 116.821 117.593 116.577 118.536 116.577C121.478 116.577 123.872 118.915 123.872 121.813C123.872 121.985 123.862 122.148 123.842 122.321H89.1289V122.331Z" fill="#C7DCDE"/>
<path opacity="0.47" d="M202.1 147.302C201.37 146.753 200.487 146.438 199.544 146.438C198.722 146.438 197.951 146.682 197.282 147.099C196.338 144.171 193.843 142.076 190.911 142.076C188.446 142.076 186.296 143.55 185.109 145.767C184.592 145.584 184.044 145.492 183.476 145.492C181.275 145.492 179.378 146.956 178.495 149.061C178.191 148.97 177.876 148.929 177.552 148.929C175.777 148.929 174.296 150.322 173.91 152.182H201.674C201.847 150.545 201.989 148.919 202.1 147.302Z" fill="#C7DCDE"/>
<path opacity="0.47" d="M11.4453 148.818C11.8308 146.947 13.3118 145.554 15.087 145.554C15.4116 145.554 15.7261 145.605 16.0304 145.686C16.9028 143.581 18.8098 142.117 21.0111 142.117C21.5791 142.117 22.1269 142.219 22.6443 142.392C23.8311 140.186 25.9816 138.701 28.4466 138.701C31.3782 138.701 33.8736 140.796 34.817 143.724C35.4865 143.307 36.2575 143.063 37.0791 143.063C39.6455 143.063 41.725 145.401 41.725 148.299C41.725 148.472 41.7149 148.634 41.7048 148.807H11.4453V148.818Z" fill="#E6F7F9"/>
<path opacity="0.47" d="M153.45 59.988C153.085 58.3612 151.655 57.1513 149.951 57.1513C149.636 57.1513 149.332 57.192 149.048 57.2733C148.206 55.4331 146.38 54.1622 144.26 54.1622C143.712 54.1622 143.185 54.2435 142.688 54.4062C141.551 52.4744 139.482 51.1934 137.108 51.1934C134.299 51.1934 131.894 53.0133 130.992 55.5754C130.352 55.2094 129.612 54.9959 128.821 54.9959C126.356 54.9959 124.357 57.0395 124.357 59.5609C124.357 59.7134 124.368 59.8558 124.378 60.0083H153.45V59.988Z" fill="#E6F7F9"/>
<path d="M185.464 199.546C185.464 199.546 157.041 172.715 139.147 168.597C121.253 164.48 135.876 178.554 135.876 178.554C135.876 178.554 110.084 156.702 98.1754 158.044C85.1303 159.508 91.5818 172.745 91.5818 172.745C91.5818 172.745 82.7363 163.341 68.3318 164.968C51.6044 166.838 84.5419 198.946 84.5419 198.946L185.464 199.546Z" fill="#B3DCE0"/>
<path d="M101.199 198.876C101.199 198.876 84.7863 175.908 68.0994 174.912C52.4372 173.987 62.0536 189.044 61.0595 188.262C60.0654 187.479 46.6957 172.441 33.9548 176.549C19.4084 181.236 41.4614 191.556 41.4614 191.556C41.4614 191.556 11.2324 184.144 8.86882 191.932C6.90089 198.388 17.8868 198.876 17.8868 198.876H101.199Z" fill="#E5EEEF"/>
<path d="M73.3206 114.765C70.6222 108.782 71.7915 100.567 72.9271 92.6332C73.3206 89.9061 73.6804 87.3255 73.8828 84.914V84.9027C73.894 84.8351 75.513 78.2991 76.8622 68.7994C78.099 60.0322 79.347 46.8926 78.2676 34.0347L78.4588 34.0234C79.5381 46.9038 78.2901 60.0547 77.0534 68.8332C75.7267 78.1864 74.1414 84.6773 74.0739 84.9365C73.8715 87.3481 73.5117 89.9287 73.1182 92.6557C71.9827 100.567 71.398 113.113 74.0739 119.04L73.3206 114.765Z" fill="#184655"/>
<path d="M78.4717 33.8652C77.7746 35.6795 77.6622 37.1445 77.5723 37.1783C78.6404 36.6825 79.0901 37.3248 80.2032 36.8515C79.6185 34.6879 78.4717 33.8652 78.4717 33.8652Z" fill="#466EB6"/>
<path d="M90.4898 15.5532C91.0294 24.5571 83.8 33.9779 78.6619 34.2597C73.7823 34.5301 65.2037 26.1235 64.6641 17.1196C64.1131 8.10445 69.4537 0.452844 76.5819 0.024624C83.7213 -0.403596 89.9388 6.54934 90.4898 15.5532Z" fill="#C3DEE1"/>
<path d="M74.0405 2.7653C70.4876 2.31454 67.4407 8.59134 70.0379 9.83093C72.7363 11.1156 78.6165 3.34002 74.0405 2.7653Z" fill="white"/>
<path d="M90.4904 15.5533C90.2318 11.1922 88.624 7.30446 86.2405 4.50977C91.2887 14.4264 85.6783 27.6111 80.2028 30.0677C77.527 31.2735 74.3564 31.8933 70.5449 29.7297C73.2545 32.6032 76.3577 34.3837 78.6513 34.2598C83.8007 33.978 91.0301 24.5572 90.4904 15.5533Z" fill="#A4CFD3"/>
<path d="M79.0466 34.5392L78.2033 34.5843C78.1134 34.5843 78.0347 34.5167 78.0234 34.4266C78.0234 34.3364 78.0909 34.2575 78.1808 34.2463L79.0128 34.2012C79.1028 34.2012 79.1815 34.2688 79.1927 34.3589C79.2152 34.4491 79.1478 34.528 79.0466 34.5392Z" fill="#184655"/>
<path d="M140.023 52.1204C140.023 52.1204 138.348 50.8358 136.527 52.3796C134.705 53.9234 135.425 53.946 134.525 54.7235C133.626 55.5011 132.142 54.8137 131.67 56.3012C131.209 57.7887 131.827 58.2394 131.827 58.2394C131.827 58.2394 130.838 59.1973 131.164 60.6172C131.49 62.0258 132.895 63.5922 134.402 63.8852C134.402 63.8852 136.201 65.7671 138.562 65.8798C140.923 65.9925 140.158 65.7558 141.058 66.0376C141.946 66.3193 144.745 65.846 144.903 63.9303C144.903 63.9303 146.915 62.6343 145.937 60.7637C144.959 58.8818 145.139 57.3492 144.914 55.163C144.678 52.9881 141.159 51.9739 140.023 52.1204Z" fill="#184655"/>
<path d="M123.395 58.4178C122.237 57.7191 119.471 54.9582 118.538 54.0229C118.526 53.9102 118.414 53.2454 117.661 52.434C117.132 51.8593 116.694 50.5183 116.368 50.9127C116.042 51.3071 116.919 52.3551 116.536 52.3777C116.154 52.4002 114.186 50.338 113.894 50.6986C113.602 51.0592 115.592 52.8848 115.255 52.896C114.917 52.9186 113.287 51.0592 112.871 51.5663C112.455 52.0734 114.996 53.5722 114.771 53.8539C114.546 54.1243 112.983 53.1439 112.646 53.5496C112.32 53.9553 114.861 54.8005 114.659 54.8117C114.456 54.823 113.006 54.8343 113.006 55.116C113.006 55.4315 116.694 55.7809 117.166 56.3105C118.178 57.8093 119.999 60.5364 121.776 61.6971C123.946 63.117 128.96 66.1258 128.96 66.1258L131.276 62.8916C131.265 62.8803 124.778 59.2404 123.395 58.4178Z" fill="#FFA7AF"/>
<path d="M116.559 53.0527C116.469 53.2443 116.436 53.4471 116.436 53.65C116.447 53.6838 116.379 54.3487 116.953 54.822C116.728 54.4163 116.469 53.9768 116.559 53.0527Z" fill="#FFA7AF"/>
<path d="M123.399 88.8904C123.77 90.2426 124.422 92.3837 124.422 92.3837C124.388 92.981 124.276 95.4489 124.152 98.4802L128.537 96.587C128.537 96.587 128.323 91.7977 128.514 91.4822C128.672 91.223 128.998 91.4033 130.313 89.42C130.696 88.8453 130.741 87.8423 130.741 87.8423C130.741 87.8423 130.785 86.6028 130.504 86.4901C130.223 86.3774 129.909 86.5802 129.819 86.7943C129.729 87.0084 129.762 87.5043 129.672 87.7297C129.582 87.9438 128.942 88.2255 128.672 88.2142C128.402 88.203 128.604 84.5518 128.604 84.5518C128.604 84.5518 128.728 83.5151 128.795 83.177C128.852 82.884 129.088 82.0388 129.088 82.0388C129.088 82.0388 129.369 80.7993 128.975 80.7204C128.75 80.6753 128.2 81.6782 127.84 82.7488C127.446 83.8982 127.244 85.1153 127.12 85.104C126.839 85.0702 126.929 83.0643 126.929 83.0643C126.929 83.0643 127.188 82.1403 127.165 81.712C127.413 81.1711 127.57 80.1907 127.098 80.1231C127.008 80.1119 126.423 81.374 126.423 81.374C126.423 81.374 126.198 82.2642 126.075 82.6699C125.838 83.4024 125.838 84.5518 125.715 85.0589C125.614 85.4759 125.512 85.3068 125.467 85.3294C125.434 85.3406 125.479 84.7659 125.524 83.9658C125.546 83.5601 125.49 83.0981 125.591 82.6474C125.681 82.2191 125.726 81.6106 125.749 81.25C125.794 80.2133 125.153 80.3372 124.95 81.2838C124.872 81.6444 124.793 82.0388 124.714 82.4445C124.411 83.9996 124.456 85.4984 124.287 85.5209C124.073 85.5435 124.141 82.8164 124.141 82.8164C124.141 82.8164 123.77 81.3176 123.477 82.7262C123.14 84.3602 123.208 85.6787 123.219 85.7351C123.275 86.1182 123.028 87.5381 123.399 88.8904Z" fill="#FFB8BC"/>
<path d="M123.838 94.8389C123.838 94.8389 128.807 93.5092 128.864 93.9149C130.145 102.705 130.696 105.871 130.876 105.961C131.495 106.254 139.331 98.6929 140.748 98.152C141.422 97.8928 142.176 97.9154 142.884 97.9154C144.593 97.9154 144.919 97.9154 144.919 97.9154C144.964 97.9154 144.986 97.9154 144.986 97.9154L145.02 99.5155C143.143 101.296 141.31 135.689 140.939 135.678C140.523 135.666 132.743 135.632 133.114 134.979C133.114 134.979 134.991 124.386 136.475 117.411C136.97 115.067 138.364 110.165 138.364 110.165C136.464 111.19 129.021 115.1 127.818 114.638C124.063 113.219 123.838 94.8389 123.838 94.8389Z" fill="#00363D"/>
<path d="M134.527 189.836C134.527 189.836 134.774 194.298 134.774 194.31C134.864 194.873 135.224 196.27 135.224 196.789C135.224 198.727 126.791 195.144 128.68 194.287C128.849 194.208 129.748 193.622 129.804 192.969C129.894 191.955 130.108 189.904 130.108 189.904L134.527 189.836Z" fill="#F7A491"/>
<path d="M128.704 194.277C128.704 194.277 130.683 194.874 131.695 195.021C132.707 195.167 134.045 193.928 134.764 194.254C135.551 194.626 135.844 197.996 135.473 198.277C135.113 198.548 123.667 198.604 121.925 198.289C120.71 198.063 124.657 195.652 128.704 194.277Z" fill="#184655"/>
<path d="M153.103 190.266C153.103 190.266 153.35 194.728 153.35 194.739C153.44 195.303 153.8 196.7 153.8 197.219C153.8 199.157 145.367 195.573 147.256 194.717C147.425 194.638 148.594 193.612 148.65 192.959C148.74 191.945 148.695 190.333 148.695 190.333L153.103 190.266Z" fill="#F7A491"/>
<path d="M147.28 194.705C147.28 194.705 149.258 195.302 150.27 195.448C151.282 195.595 152.62 194.355 153.34 194.682C154.127 195.054 154.16 198.39 154.16 198.39C154.16 198.39 142.94 198.863 140.185 198.367C139.241 198.198 143.232 196.079 147.28 194.705Z" fill="#184655"/>
<path d="M139.747 125.863L136.183 127.43L128.684 163.986L128.987 191.392L135.002 191.539C135.002 191.539 137.802 167.57 137.802 165.71C137.802 163.851 150.754 133.199 150.754 133.199L139.747 125.863Z" fill="#005761"/>
<path d="M142.498 127.868C142.498 127.868 145.129 156.029 145.129 160.785C145.129 165.529 147.254 192.101 147.254 192.101L153.28 192.067C153.28 192.067 153.719 183.965 154.36 172.054C154.461 170.183 154.225 166.419 154.36 164.492C155.293 150.598 157.148 137.514 156.271 132.331C156.125 131.497 155.855 129.311 155.338 128.758C151.38 124.589 142.498 127.868 142.498 127.868Z" fill="#005761"/>
<path d="M138.553 115.754C139.408 111.539 141.589 104.631 142.23 103.065C143.703 99.4701 144.939 97.9375 144.939 97.9375L150.752 98.1065C150.752 98.1065 150.887 98.1403 150.932 98.1516C151.404 98.2305 151.427 115.202 151.168 121.546C150.91 127.89 149.504 136.15 149.504 136.15L147.84 135.993C147.818 136.849 147.795 137.413 147.795 137.413C139.385 138.9 134.686 134.742 134.686 134.742C134.686 134.742 137.44 121.219 138.553 115.754Z" fill="#E6F7F9"/>
<path d="M150.447 92.9813L150.751 98.1199C150.751 98.1199 147.164 104.712 145.208 103.856C143.566 103.135 144.882 98.165 144.882 98.165C144.882 98.165 145.129 97.0268 145.489 95.7196C145.736 94.8069 145.938 93.8152 145.905 93.094C145.804 91.3248 150.447 92.9813 150.447 92.9813Z" fill="#FFB8BC"/>
<path d="M145.895 93.0819C145.805 91.324 150.449 92.9805 150.449 92.9805L150.483 93.4876C150.336 93.7243 150.168 93.9271 149.988 94.0849C148.774 95.1216 147.008 95.6174 145.547 95.4935C145.76 94.6371 145.929 93.7468 145.895 93.0819Z" fill="#FF808C"/>
<path d="M145.649 81.3711C145.649 81.3711 143.805 84.3123 143.726 86.7576C143.648 89.1917 144.21 90.8483 144.21 90.8483L150.169 83.3206L145.649 81.3711Z" fill="#184655"/>
<path d="M143.085 86.2733C143.017 87.1298 143.366 87.851 143.872 87.8848C144.366 87.9186 144.827 87.265 144.883 86.4085C144.951 85.5521 144.602 84.8309 144.096 84.7971C143.602 84.752 143.152 85.4169 143.085 86.2733Z" fill="#FF808C"/>
<path d="M152.182 84.4459C152.317 84.4121 152.497 91.5002 150.484 93.2244C148.483 94.9485 144.908 95.1852 143.829 93.5286C142.625 91.7031 143.525 84.1979 146.538 82.5301C149.551 80.8736 152.182 84.4459 152.182 84.4459Z" fill="#FFB8BC"/>
<path d="M152.584 80.0285C154.18 81.3582 154.967 82.3499 156.091 84.7614C157.474 87.7364 154.967 90.9143 152.831 92.2102C150.695 93.5062 150.56 95.0049 150.56 95.0049L150.447 94.0809C150.391 93.7428 150.402 93.4723 150.459 93.2357C150.515 92.954 150.639 92.7173 150.751 92.4807C150.92 92.0863 151.482 90.7115 151.707 90.3508C152.291 89.393 152.404 89.1901 152.078 88.2999C151.83 87.6125 152.055 86.0912 151.673 84.9643L148.738 84.4121C148.738 84.4121 146.906 84.0177 145.95 82.981C143.218 79.9947 148.367 76.445 152.584 80.0285Z" fill="#00363D"/>
<path d="M151.406 89.1013C151.069 89.8902 151.159 90.6903 151.62 90.8818C152.081 91.0847 152.722 90.6001 153.059 89.8113C153.396 89.0225 153.307 88.2224 152.846 88.0308C152.385 87.8392 151.744 88.3125 151.406 89.1013Z" fill="#FFB8BC"/>
<path d="M159.342 67.8614C159.871 69.1574 160.658 71.2647 160.658 71.2647C161.377 72.3577 163.143 74.8369 164.2 76.4822L159.77 77.1358C159.77 77.1358 157.094 73.0902 156.756 72.9663C156.475 72.8536 156.43 73.2818 154.182 72.5042C153.53 72.2789 152.889 71.5126 152.889 71.5126C152.889 71.5126 152.81 71.3773 152.968 71.1294C153.125 70.8702 152.776 70.0138 152.99 70.1265C153.192 70.2392 153.462 70.6561 153.676 70.7688C153.878 70.8815 153.62 69.3602 153.822 69.1912C154.036 69.0221 153.204 67.4783 155.362 65.788C155.531 65.6527 156.239 64.4808 157.622 65.6527C157.926 65.8894 158.814 66.5655 159.342 67.8614Z" fill="#FFB8BC"/>
<path d="M150.751 98.1076C150.751 98.1076 156.497 97.6906 157.97 96.9694C158.858 96.5412 164.558 91.673 164.558 91.673L158.082 75.8739L163.366 74.1836C163.366 74.1836 173.957 91.4476 173.069 93.4084C172.159 95.4368 161.545 103.945 159.476 107.573C158.284 109.658 159.42 138.033 159.026 138.293C156.261 139.825 144.646 141.189 144.826 140.298C149.807 115.665 150.751 98.1076 150.751 98.1076Z" fill="#00363D"/>
<path d="M133.121 63.0508L127.915 60.6055L126.24 65.654L131.311 68.4599L133.121 63.0508Z" fill="#C7DCDE"/>
<path d="M152.258 70.8026C152.258 70.8026 152.28 70.1151 153.033 69.2024C153.517 68.6164 154.113 67.805 154.427 68.1656C154.742 68.5262 153.73 69.0784 154.079 69.0784C154.439 69.0784 156.575 67.4669 156.867 67.7937C157.148 68.1205 155.226 69.3714 155.406 69.4615C155.586 69.5517 157.103 67.8388 157.407 68.2332C157.711 68.6389 155.608 70.1602 155.664 70.2616C155.743 70.4419 157.283 69.2474 157.609 69.6193C157.935 69.9912 155.664 71.0392 155.855 71.0392C156.047 71.0392 157.272 70.8702 157.272 71.1406C157.283 71.4449 154.619 72.1097 154.191 72.6507C153.764 73.1916 147.94 78.2739 146.613 78.0034C145.287 77.7442 139.699 72.9887 139.53 71.5914C139.362 70.194 140.171 68.5488 141.071 68.5375C141.97 68.5262 147.164 73.5296 147.457 73.5296C147.738 73.5184 152.258 70.8026 152.258 70.8026Z" fill="#FFA7AF"/>
<path d="M124.036 95.3588C124.418 95.9899 125.936 96.9478 125.936 96.9478C125.059 98.7959 121.967 102.909 121.967 102.909C121.967 102.909 121.416 102.391 121.54 101.816C121.664 101.241 122.214 98.6043 121.585 97.5676C121.416 97.2971 119.606 94.277 118.234 91.5499C119.19 90.964 121.472 91.4936 122.338 90.7949C123.17 92.2261 123.901 95.1447 124.036 95.3588Z" fill="#FFB8BC"/>
<path d="M124.691 96.0469C124.691 96.0469 122.42 99.5177 121.959 99.9009C121.588 100.216 120.924 104.048 121.498 104.115C122.071 104.172 126.872 98.5598 126.928 97.8161C126.984 97.0836 124.691 96.0469 124.691 96.0469Z" fill="#F04A3D"/>
<path d="M118.357 100.733C118.391 101.455 119.268 103.021 119.268 103.021C117.559 104.103 112.725 105.94 112.725 105.94C112.725 105.94 112.488 105.23 112.882 104.813C113.275 104.396 115.468 101.736 115.423 100.564C115.412 100.26 115.322 97.9838 115.007 96.609C116.165 96.609 117.346 96.4399 118.47 96.3047C118.504 97.9049 118.346 100.497 118.357 100.733Z" fill="#FFB8BC"/>
<path d="M125.637 78.916C125.637 78.916 116.227 83.7842 115.069 84.9336C114.203 85.7901 114.237 97.3858 114.237 97.3858C114.237 97.3858 117.43 98.1296 119.127 97.2731C119.127 97.2731 119.768 89.3961 120.218 89.1708C120.668 88.9454 130.371 86.7367 130.371 86.7367L130.708 82.0488L125.637 78.916Z" fill="#00363D"/>
<path d="M134.867 76.7402C134.867 76.7402 130.819 79.6476 129.076 80.0195C127.738 80.3125 116.934 82.0592 116.518 85.1018C116.282 86.8259 118.789 94.1846 118.789 94.1846L123.477 92.4491C123.477 92.4491 122.162 88.9783 122.398 88.5952C122.634 88.212 131.381 89.6432 134.001 88.3698C136.621 87.0964 137.104 81.2027 137.104 81.2027L134.867 76.7402Z" fill="#005761"/>
<path d="M136.202 64.6489C136.202 64.6489 133.898 63.6234 133.133 63.0487C132.368 62.4627 126.488 76.8306 123.486 79.6816C127.691 83.006 136.247 86.8036 136.247 86.8036C136.247 86.8036 137.878 83.7272 138.271 80.3014C138.698 76.6728 138.991 74.543 139.384 73.3034L142.532 76.1207L145.714 71.1736C145.714 71.1736 141.644 67.1168 140.014 66.204C139.553 65.9448 136.202 64.6489 136.202 64.6489Z" fill="#C7DCDE"/>
<path d="M118.573 101.557C118.573 101.557 114.571 103.427 113.919 103.529C113.39 103.608 111.276 106.65 111.805 107.022C112.333 107.394 119.428 105.016 119.877 104.396C120.338 103.777 118.573 101.557 118.573 101.557Z" fill="#F04A3D"/>
<path d="M135.573 61.9585C135.573 61.9585 134.831 64.618 134.505 64.7983C134.179 64.9674 133.707 65.2716 133.875 66.0154C134.044 66.7591 135.742 66.8493 136.596 66.7253C137.406 66.6014 138.069 66.0942 138.069 66.0942L139.002 61.8008L135.573 61.9585Z" fill="#FFB8BC"/>
<path d="M136.281 63.3882C136.843 63.3657 137.833 63.298 138.867 62.4078L139.002 61.8105L135.573 61.9796C135.573 61.9796 135.393 62.6332 135.168 63.3093C135.606 63.4107 136.011 63.3882 136.281 63.3882Z" fill="#FF808C"/>
<path d="M140.477 58.981C140.477 58.981 141.039 57.4484 141.893 58.0569C142.748 58.6542 141.297 60.7727 140.533 60.4459C139.768 60.1191 140.477 58.981 140.477 58.981Z" fill="#FF808C"/>
<path d="M139.059 52.9747C139.059 52.9747 137.586 52.4788 136.462 53.4029C135.338 54.3269 133.482 57.3808 134.022 60.0628C134.562 62.7448 136.349 62.6772 137.08 62.6547C137.811 62.6321 139.284 62.5195 140.611 60.5925C141.937 58.6542 142.96 53.7071 139.059 52.9747Z" fill="#FFB8BC"/>
<path d="M137.191 60.1205L135.313 59.4219C135.313 59.4219 135.088 60.1544 135.909 60.4812C136.91 60.8868 137.191 60.1205 137.191 60.1205Z" fill="white"/>
<path d="M156.912 72.7513C155.788 73.1908 153.944 72.4921 153.123 72.0413C153.044 71.7258 154.146 71.4779 154.888 71.6244C155.63 71.7709 156.609 70.8919 157.879 71.5455C158.632 72.3118 156.912 72.7513 156.912 72.7513Z" fill="#FF808C"/>
<path d="M155.858 67.444C157.646 68.7512 156.364 68.7512 154.745 68.3455C155.644 68.7737 155.611 69.0554 155.386 69.247C155.116 69.4836 153.261 69.2244 152.968 68.8413C152.71 68.4807 153.643 67.2749 154.014 66.9707C154.228 66.7791 154.486 66.565 154.722 66.3058C155.408 65.5733 155.554 65.4719 155.813 65.2916C156.308 64.9422 156.735 65.2465 157.376 65.6522C158.185 66.2945 157.904 66.8354 156.679 66.441C156.802 66.5312 157.736 67.0608 157.544 67.5566C157.421 67.8947 156.904 67.7595 155.858 67.444Z" fill="#FF808C"/>
<path d="M131.37 86.4243C130.74 86.6384 130.201 88.0019 130.133 87.923C130.133 87.923 127.491 89.0499 125.861 90.7177C125.804 90.8642 125.703 91.2586 125.613 91.4389L127.974 91.9911C129.245 91.0671 130.56 89.4781 130.729 89.1175C130.83 88.8922 131.134 88.2836 131.291 87.9568C131.449 87.63 131.786 86.9201 131.921 86.7849C132.101 86.582 131.921 86.244 131.37 86.4243Z" fill="#FFB8BC"/>
<path d="M42.221 85.0357C42.4234 88.7206 47.674 89.8363 51.2718 88.8559C53.6104 88.2135 54.5998 87.6501 54.24 85.1033C53.6554 80.9676 51.2943 79.0406 48.7084 78.7364C45.3691 78.3419 42.0524 82.0043 42.221 85.0357Z" fill="#F04A3D"/>
<path d="M48.4844 139.156L51.3177 164.5C51.3177 164.5 49.9347 169.864 50.0922 171.385C50.2496 172.907 53.1728 192.875 53.1728 192.875L53.0491 193.991V197.304H63.8763C63.8763 197.304 61.5827 196.279 58.3672 194.239C58.1311 194.092 57.5801 193.608 57.4452 192.65C56.5907 186.497 58.2885 165.965 58.2885 165.965L59.6264 139.235L48.4844 139.156Z" fill="#FFB8BC"/>
<path d="M39.7823 144.486C39.1752 144.644 38.2308 166.427 37.7248 167.396C34.5093 173.515 33.7447 192.131 33.7447 192.131L32.7891 194.836C33.8909 195.771 35.1277 195.76 36.5218 194.746L36.3532 191.816L44.4595 168.624L48.8894 144.971L39.7823 144.486Z" fill="#FFB8BC"/>
<path d="M55.896 102.66C54.5917 100.88 49.195 95.7075 48.5991 95.7188C46.8564 95.7526 41.1224 95.7526 39.998 96.316L40.0543 106.154C40.2342 106.976 44.1918 119.846 43.9669 122.663L43.9894 122.685C47.3061 125.886 52.5342 125.638 55.5699 122.133C55.5699 122.133 55.5587 118.234 56.0196 114.673C56.7505 109.095 59.1453 107.089 55.896 102.66Z" fill="#C7DCDE"/>
<path d="M60.6493 156.009L61.0316 140.976C61.099 136.728 60.2333 132.513 58.4906 128.648L55.5674 122.123C54.3868 122.495 53.2625 122.822 52.0258 122.957C49.3161 123.261 46.6515 122.957 43.9644 122.653C43.9531 122.754 43.9419 122.844 43.9306 122.923C43.4472 125.132 40.7263 130.068 39.5795 136.818C38.2753 144.481 37.938 155.096 38.1066 155.986C45.6284 157.755 53.3525 157.812 60.6493 156.009Z" fill="#005761"/>
<path d="M46.8316 90.1763C46.8316 90.1763 46.9777 93.8049 46.6517 95.1797C46.3256 96.5546 45.8871 96.656 48.698 97.0842C49.7998 97.2532 50.8567 97.4899 50.8567 97.4899C50.8567 97.4899 50.5643 95.4727 50.5306 94.6163C50.4631 93.2077 50.8567 88.8691 50.8567 88.8691L46.8316 90.1763Z" fill="#FFB8BC"/>
<path d="M48.968 91.9794C49.5414 92.2949 50.0811 92.4752 50.5758 92.5541C50.6658 90.8412 50.8457 88.8691 50.8457 88.8691L47.0117 90.1087C47.4614 90.8525 48.1023 91.5061 48.968 91.9794Z" fill="#FF808C"/>
<path d="M36.5103 195.109C35.0262 195.763 33.4409 195.369 32.8 195.166L32.5864 195.74L31.7656 198.456C31.7656 198.456 35.0149 199.256 36.6902 198.332L36.5103 195.109Z" fill="#F04A3D"/>
<path d="M52.9476 198.489H64.2021C64.6181 198.455 64.7193 198.117 64.5731 197.903C64.2808 197.475 62.9653 197.137 61.4812 196.45C58.8953 196.72 53.4536 194.962 53.0488 194.354C52.8239 195.559 52.7115 198.433 52.9476 198.489Z" fill="#F04A3D"/>
<path d="M55.1742 107.35C55.1742 107.35 57.0743 111.148 57.3779 111.531C57.3779 111.531 65.7204 109.683 69.2395 108.578C69.2845 108.556 69.3182 108.544 69.3632 108.522C69.4306 108.488 69.5206 108.477 69.5431 108.375C69.6218 107.947 70.004 106.516 70.2064 105.908C70.2626 105.738 70.3526 105.592 70.465 105.457C70.7236 105.164 71.8929 103.248 71.8929 103.248C71.8929 103.248 72.2977 103.395 72.2977 104.026C72.2977 104.657 71.4207 105.851 71.6568 105.851C71.9041 105.862 72.1403 105.784 72.3764 105.705C72.6912 105.603 73.051 105.592 73.3883 105.637C73.7143 105.671 73.9167 105.908 73.9504 106.268C73.9617 106.482 73.9279 106.719 74.0066 106.91C74.1415 107.237 74.3439 110.224 73.838 110.517C73.5794 110.663 72.2077 110.911 71.6568 110.922C71.2633 110.933 70.8698 111.024 70.5437 111.181C70.4763 111.215 70.3976 111.238 70.3188 111.272C67.8116 112.286 59.4242 115.858 59.4242 115.858C59.4242 115.858 55.3091 117.323 54.7133 116.805C54.1174 116.275 50.5195 109.209 50.5195 109.209L55.1742 107.35Z" fill="#FFB8BC"/>
<path d="M46.1341 100.519C45.3246 103.854 49.6532 111.292 49.6532 111.292C49.6532 111.292 55.8145 108.385 56.8938 107.134C56.8938 107.134 52.7114 99.9216 52.4303 99.4821C51.1935 97.4988 49.507 97.4988 48.4052 97.6228C47.5282 97.7242 46.1341 100.519 46.1341 100.519Z" fill="#E6F7F9"/>
<path d="M47.6072 102.255C50.1482 99.3025 50.4518 93.5553 48.0795 90.5014C49.1476 88.597 50.0358 88.7886 49.4399 86.6925C48.2594 82.5794 52.9028 79.1987 48.3718 78.7029C43.8295 78.4549 41.3897 81.6891 39.7595 84.6754C39.0174 86.0164 38.0393 87.2335 36.7913 88.1575C34.329 90.0056 33.4183 93.7131 35.3634 97.1614C33.3958 98.6602 32.0241 102.39 33.8455 105.072C34.284 105.715 35.0823 106.424 35.1385 106.616C35.0598 106.379 34.0254 113.073 41.6258 114.211C49.3724 115.395 49.8784 108.047 47.6072 102.255Z" fill="#F04A3D"/>
<path d="M46.3153 81.2067C46.3153 81.2067 44.9098 82.2097 44.5501 84.0465C44.1903 85.8834 46.1354 90.8192 50.1155 91.4389C54.0956 92.0587 54.5453 87.7765 53.4547 85.0607C52.3529 82.3336 50.2391 78.9755 46.3153 81.2067Z" fill="#FFB8BC"/>
<path d="M45.0448 87.6488C44.1228 85.0231 43.2576 82.1608 45.0453 80.8986C46.833 79.6365 49.126 79.1971 51.0936 80.7296L51.5096 80.8987C51.5096 80.8987 48.384 82.2622 48.4514 84.0089C48.5189 85.7556 47.0798 88.0545 47.462 88.8658C47.8443 89.6772 48.3952 91.3224 48.3952 91.3224L47.597 90.8379C47.6082 90.8266 45.9555 90.2857 45.0448 87.6488Z" fill="#F04A3D"/>
<path d="M48.0009 86.513C48.4731 87.1554 48.4956 87.9442 48.0459 88.271C47.5961 88.5978 46.8428 88.3386 46.3706 87.6963C45.8984 87.0539 45.8759 86.2651 46.3257 85.9383C46.7641 85.6115 47.5174 85.8707 48.0009 86.513Z" fill="#FF808C"/>
<path d="M85.7083 151.88C84.6177 152.353 81.0649 150.697 79.3334 149.806C77.3546 148.792 76.1404 148.15 73.7231 146.888C72.3064 146.144 70.1252 145.536 69.698 146.313C69.4731 148.037 71.9354 149.626 73.4757 149.311C74.3752 149.592 77.6919 152.071 78.4677 152.646C80.0642 153.841 81.8069 154.799 84.0106 156.523C86.2143 158.247 88.4854 159.216 89.5872 158.585C90.6891 157.954 89.8346 154.562 89.115 153.491C88.3955 152.432 85.7083 151.88 85.7083 151.88Z" fill="#FF8A95"/>
<path d="M97.7181 175.672C98.0217 179.379 94.7386 182.377 94.615 186.028C94.4913 189.499 99.9892 191.414 97.3808 195.539C96.6612 196.497 94.1765 196.936 92.1415 196.936C90.1064 196.936 90.1289 198.773 90.1289 198.773H97.3358C102.069 197.455 102.924 195.302 103.43 194.344C104.25 192.767 115.392 181.261 100.922 190.096C97.392 192.248 105.881 185.487 106.117 183.098C105.431 180.179 97.3246 170.713 97.7181 175.672Z" fill="#FF8A95"/>
<path d="M99.3931 135.339C98.2238 134.742 96.5823 134.798 95.0982 133.84C93.6028 132.883 92.7708 131.508 91.995 131.508C91.2193 131.508 88.8469 132.894 90.331 136.06C90.331 136.06 92.6359 140.512 91.995 143.115C91.6465 144.512 89.9038 147.003 87.1605 149.64C84.4171 152.276 82.6182 159.398 84.4733 163.579C86.3285 167.771 91.8152 170.217 94.6822 172.741C97.5492 175.254 98.4487 179.683 98.4487 179.683C97.2569 183.875 95.8177 188.54 99.7641 191.887C103.699 195.234 103.531 196.259 103.531 196.259C100.967 196.913 100.191 196.8 98.1563 196.8C96.1213 196.8 96.1888 198.772 96.1888 198.772H100.709C101.765 198.772 102.822 198.614 103.834 198.288C107.713 197.059 108.208 197.104 108.309 196.135C108.433 195.053 104.43 193.025 107.353 190.095C110.277 187.165 112.312 185.486 112.548 183.097C118.698 186.095 127.479 186.872 133.561 182.793C134.337 182.195 131.054 183.153 126.579 183.57C122.104 183.987 116.606 182.612 114.223 178.961C112.413 176.2 113.031 173.755 109.265 168.369C105.498 162.982 102.811 161.371 102.283 157.359C101.743 153.347 101.327 152.693 101.81 146.89C102.283 141.086 102.699 140.76 101.934 138.449C101.541 137.368 100.427 135.858 99.3931 135.339Z" fill="#FFB8BC"/>
<path d="M96.7956 136.455C96.8631 136.714 96.8518 136.94 96.5932 137.007C96.3346 137.075 96.076 136.928 96.0086 136.669C95.9411 136.41 96.0873 136.151 96.3459 136.083C96.5932 136.016 96.7057 136.106 96.7956 136.455Z" fill="#854D36"/>
<path d="M83.7188 159.951C83.7412 160.639 83.8199 161.303 83.9549 161.946C86.2372 163.636 89.2954 164.064 89.6664 163.467C87.429 160.639 84.6969 159.951 83.7188 159.951Z" fill="#FF8A95"/>
<path d="M99.6302 145.155C99.99 145.786 102.531 145.008 102.79 144.794C103.059 144.58 102.34 141.087 101.834 139.858C101.328 138.63 100.642 138.991 100.642 138.991C101.216 140.478 99.2817 144.524 99.6302 145.155Z" fill="#FF8A95"/>
<path d="M92.6369 131.767C92.457 132.229 92.2096 132.331 91.951 132.105C91.6925 131.88 91.4114 131.767 91.4114 131.767C91.3327 131.632 91.6925 131.418 91.996 131.418C92.2883 131.418 92.6819 131.655 92.6369 131.767Z" fill="#BF6F4E"/>
<path d="M86.2481 156.175C85.0564 156.693 81.1775 154.879 79.2773 153.899C77.1186 152.794 75.7919 152.096 73.1498 150.698C71.5982 149.887 69.2147 149.211 68.7424 150.067C68.4951 151.949 71.1935 153.696 72.8687 153.347C73.8581 153.651 77.4784 156.355 78.3329 156.986C80.0869 158.282 81.987 159.342 84.393 161.224C86.7991 163.117 89.2838 164.176 90.4868 163.477C91.6899 162.79 90.7567 159.082 89.9697 157.911C89.1826 156.784 86.2481 156.175 86.2481 156.175Z" fill="#FFA3AB"/>
<path fill-rule="evenodd" clip-rule="evenodd" d="M32.9175 36.5638C29.4268 35.2951 25.4457 35.0557 21.4732 36.1201C21.3143 36.1627 21.2349 36.184 21.076 36.2265L22.1984 40.4156C22.3573 40.373 22.4368 40.3517 22.5957 40.3091C25.2969 39.5853 28.0434 39.6658 30.5354 40.3858C32.0107 40.8068 33.3088 41.5202 34.5684 42.4072C35.1362 41.0305 35.9832 39.7424 36.9708 38.6614C38.7486 36.7157 41.1459 35.1753 43.9266 34.4303C44.0061 34.409 44.0856 34.3877 44.165 34.3664L43.0426 30.1774C42.9631 30.1986 42.8836 30.2199 42.8042 30.2412C38.7523 31.3269 35.3447 33.5461 32.9175 36.5638Z" fill="#CCD5D6"/>
<path fill-rule="evenodd" clip-rule="evenodd" d="M180.53 45.5557C179.274 42.8655 177.159 40.4798 174.312 38.836C174.198 38.7703 174.141 38.7374 174.027 38.6717L172.293 41.674C172.407 41.7397 172.464 41.7726 172.578 41.8383C174.514 42.9561 176.021 44.554 177.023 46.3696C177.619 47.4415 177.949 48.5785 178.16 49.7918C179.259 49.3346 180.466 49.0852 181.635 49.0325C183.74 48.9375 185.965 49.4219 187.958 50.5726C188.015 50.6055 188.072 50.6383 188.129 50.6712L189.863 47.6689C189.806 47.6361 189.749 47.6032 189.692 47.5703C186.788 45.8937 183.607 45.2219 180.53 45.5557Z" fill="#CCD5D6"/>
<path fill-rule="evenodd" clip-rule="evenodd" d="M126.542 15.272C123.418 12.0561 119.206 9.66863 114.303 8.66819C114.106 8.62817 114.008 8.60816 113.812 8.56814L112.783 13.6111C112.979 13.6511 113.078 13.6711 113.274 13.7111C116.608 14.3914 119.559 15.9486 121.889 18.0475C123.272 19.2846 124.303 20.7366 125.2 22.3521C126.559 21.1968 128.175 20.285 129.833 19.6683C132.818 18.5581 136.26 18.2098 139.693 18.9101C139.791 18.9301 139.889 18.9501 139.987 18.9701L141.016 13.9272C140.918 13.9072 140.82 13.8872 140.722 13.8672C135.72 12.8467 130.811 13.3733 126.542 15.272Z" fill="#CCD5D6"/>
</g>
<defs>
<clipPath id="clip0_1353_8868">
<rect width="201.185" height="201.185" fill="white" transform="translate(0.916016)"/>
</clipPath>
</defs>
</svg>
