<svg width="202" height="202" viewBox="0 0 202 202" fill="none" xmlns="http://www.w3.org/2000/svg">
<g clip-path="url(#clip0_1353_8678)">
<path d="M48.4988 89.604C48.4362 77.7728 57.2418 73.1405 70.0329 82.5721C92.0469 98.827 68.7809 136.616 143.9 114.226C147.113 120.403 148.783 125.16 150.41 129.98C106.549 146.945 48.8118 140.309 48.4988 89.5832V89.604Z" fill="#C7DCDE"/>
<path d="M13.0898 366.712C24.7332 309.204 40.4665 228.869 41.9062 171.674C28.5726 170.464 15.2182 169.901 1.90542 168.461C-0.076889 229.829 0.0691681 303.091 -7.81832 363.269C-7.81832 363.269 8.08186 366.149 13.0689 366.733L13.0898 366.712Z" fill="#005761"/>
<path d="M64.4877 365.188C75.2965 314.608 82.6415 218.602 75.6721 167.5C63.4862 168.356 47.6277 168.168 35.4417 168.669C42.3694 219.374 50.6742 313.564 43.3918 363.247C50.4238 363.936 57.4766 364.541 64.5086 365.167L64.4877 365.188Z" fill="#005761"/>
<path d="M3.99377 98.2023C4.8493 74.3938 31.6626 73.6635 49.4825 74.7277C64.8401 75.6458 80.636 83.0742 79.9891 100.957C79.9891 100.998 82.2636 137.076 83.8077 172.674C84.3085 184.046 84.2667 184.923 84.2667 184.923C84.2667 184.923 66.3634 191.099 -0.722031 183.942L3.99377 98.2023Z" fill="#E6F7F9"/>
<path d="M46.518 80.8625C49.6897 80.8833 52.2563 78.3585 52.298 75.1868L52.4023 62.0619L40.2164 58.3477L40.8424 75.0825C40.8215 78.2542 43.3463 80.8207 46.518 80.8625Z" fill="#FFB8BC"/>
<path d="M43.8674 57.9941L52.3809 58.8497L52.3391 74.3325C45.6201 74.4577 40.654 67.8222 40.3827 62.6473C40.3201 61.5832 43.8882 57.9941 43.8882 57.9941H43.8674Z" fill="#FF808C"/>
<path d="M50.3597 48.5206L59.0193 47.686C61.2311 47.4773 63.2343 49.1049 63.4429 51.3376C63.6516 53.5703 62.024 55.5526 59.7913 55.7613L50.6518 56.6377L50.3597 48.5206Z" fill="#FF808C"/>
<path d="M48.9375 56.8455L40.278 57.6802C38.0661 57.8888 36.0629 56.2613 35.8543 54.0286C35.6456 51.7959 37.2732 49.8136 39.5059 49.6049L48.6454 48.7285L48.9375 56.8455Z" fill="#FFB8BC"/>
<path d="M52.1714 68.8038C58.4314 68.1987 63.0637 62.6065 62.4586 56.3466L61.1231 42.4496C60.518 36.1897 54.9258 31.5574 48.6659 32.1625C42.406 32.7677 37.7736 38.3598 38.3788 44.6197L39.7142 58.5167C40.3194 64.7766 45.9115 69.409 52.1714 68.8038Z" fill="#FFB8BC"/>
<path d="M37.7337 50.734H37.5041C37.3998 48.8351 37.3998 46.9154 37.5041 45.0375C37.7128 40.426 38.3179 37.2334 41.7817 34.2704C47.2905 29.5129 54.9901 28.9912 61.2292 32.2672C63.7332 33.5818 66.9257 35.7311 64.8808 39.0905C61.3961 44.7871 44.8491 36.4822 42.053 47.3119C41.5313 49.3151 39.8203 50.7548 37.7545 50.7548L37.7337 50.734Z" fill="#005761"/>
<path d="M35.6272 80.864H56.4102V75.5431L52.5081 72.5174L47.3124 79.1321L40.7186 71.7871L35.6272 74.6041V80.864Z" fill="#E6F7F9"/>
<path d="M43.2222 83.7214L45.3923 81.2383C46.7903 81.28 47.8545 81.3009 49.2526 81.3426L51.1514 83.7214C50.5671 85.5576 50.1707 86.7679 49.6073 88.625C50.3167 112.433 52.4242 136.117 55.8672 159.55C54.5317 165.643 53.3006 171.757 52.153 177.954C49.4612 172.278 46.8529 166.54 44.3072 160.718C42.9509 136.618 43.0135 112.517 44.4741 88.5415C44.0568 86.9557 43.6395 85.3072 43.2222 83.7214Z" fill="#F04A3D"/>
<path d="M183.32 139.097H112.124L121.284 86.7637H192.48L183.32 139.097Z" fill="#00363D"/>
<path d="M145.32 133.566H74.1034L75.105 139.096H145.32V133.566Z" fill="#00363D"/>
<path d="M187.785 139.097H116.589L125.749 86.7637H196.945L187.785 139.097Z" fill="#005761"/>
<path d="M164.437 112.639C163.748 116.041 160.556 118.816 157.321 118.816C154.087 118.816 151.938 116.061 152.543 112.639C153.148 109.238 156.32 106.463 159.658 106.463C162.997 106.463 165.146 109.217 164.437 112.639Z" fill="white"/>
<path d="M122.596 146.985C122.763 146.276 122.805 145.566 122.742 144.836C122.325 140.934 118.276 137.908 114.479 138.013C72.0575 139.056 46.8092 128.999 26.9444 94.5274C24.4613 90.208 17.2207 97.0522 14.9462 99.7857C12.6718 102.519 10.5852 106.192 13.7151 110.01C42.4481 145.17 70.9516 155.207 116.044 152.682C119.153 152.515 121.907 150.011 122.617 147.006L122.596 146.985Z" fill="#FFB8BC"/>
<path d="M6.41022 98.4087C5.28344 94.6945 18.0328 82.0703 22.4356 83.218C30.0101 85.1794 37.4385 129.583 100.518 136.928L98.8691 153.767C30.4692 154.915 11.2721 114.33 6.41022 98.4087Z" fill="#E6F7F9"/>
<circle cx="144.183" cy="63.7087" r="12.2946" fill="#C7DCDE"/>
<path d="M154.782 63.7082C154.782 69.5617 150.036 74.307 144.183 74.307C138.329 74.307 133.584 69.5617 133.584 63.7082C133.584 57.8546 138.329 53.1094 144.183 53.1094C150.036 53.1094 154.782 57.8546 154.782 63.7082ZM134.293 63.7082C134.293 69.1703 138.721 73.5982 144.183 73.5982C149.645 73.5982 154.073 69.1703 154.073 63.7082C154.073 58.2461 149.645 53.8182 144.183 53.8182C138.721 53.8182 134.293 58.2461 134.293 63.7082Z" fill="#E6F7F9"/>
<path d="M143.833 70.0682V57.3496H144.629V70.0682H143.833ZM146.129 61.4186C146.084 60.9847 145.893 60.6468 145.557 60.405C145.223 60.1633 144.79 60.0424 144.256 60.0424C143.88 60.0424 143.558 60.1003 143.29 60.2163C143.021 60.3322 142.815 60.4895 142.673 60.6882C142.531 60.887 142.458 61.1138 142.455 61.3689C142.455 61.5809 142.502 61.7647 142.595 61.9203C142.692 62.076 142.824 62.2085 142.989 62.3178C143.154 62.4238 143.336 62.5132 143.537 62.5861C143.738 62.6589 143.94 62.7202 144.144 62.7699L145.076 63.0084C145.451 63.0978 145.812 63.2187 146.159 63.3711C146.508 63.5234 146.82 63.7155 147.095 63.9474C147.374 64.1792 147.594 64.4591 147.756 64.787C147.917 65.1149 147.998 65.4991 147.998 65.9396C147.998 66.5358 147.849 67.0608 147.552 67.5145C147.254 67.965 146.824 68.3177 146.26 68.5727C145.701 68.8245 145.023 68.9503 144.226 68.9503C143.453 68.9503 142.781 68.8278 142.212 68.5827C141.646 68.3376 141.202 67.9799 140.882 67.5096C140.565 67.0392 140.393 66.4662 140.367 65.7906H142.139C142.165 66.145 142.272 66.4397 142.459 66.6749C142.647 66.9101 142.891 67.0856 143.192 67.2015C143.497 67.3175 143.836 67.3754 144.212 67.3754C144.603 67.3754 144.947 67.3158 145.241 67.1966C145.539 67.074 145.772 66.9051 145.94 66.6898C146.108 66.4712 146.194 66.2162 146.197 65.9247C146.194 65.6597 146.118 65.4411 145.969 65.2689C145.82 65.0934 145.612 64.9476 145.343 64.8317C145.078 64.7125 144.767 64.6065 144.411 64.5137L143.28 64.2156C142.461 64.0004 141.814 63.6741 141.338 63.2369C140.866 62.7964 140.629 62.2118 140.629 61.4831C140.629 60.8836 140.788 60.3587 141.105 59.9082C141.425 59.4578 141.861 59.1083 142.411 58.8599C142.961 58.6082 143.584 58.4824 144.28 58.4824C144.985 58.4824 145.603 58.6082 146.134 58.8599C146.668 59.1083 147.087 59.4545 147.392 59.8983C147.696 60.3388 147.853 60.8456 147.862 61.4186H146.129Z" fill="#005761"/>
<circle cx="107.301" cy="40.2385" r="17.8831" fill="#C7DCDE"/>
<path d="M122.718 40.2407C122.718 48.7549 115.815 55.6571 107.301 55.6571C98.7869 55.6571 91.8848 48.7549 91.8848 40.2407C91.8848 31.7264 98.7869 24.8242 107.301 24.8242C115.815 24.8242 122.718 31.7264 122.718 40.2407ZM92.9157 40.2407C92.9157 48.1855 99.3563 54.6261 107.301 54.6261C115.246 54.6261 121.687 48.1855 121.687 40.2407C121.687 32.2958 115.246 25.8552 107.301 25.8552C99.3563 25.8552 92.9157 32.2958 92.9157 40.2407Z" fill="#E6F7F9"/>
<path d="M106.792 49.488V30.9883H107.95V49.488H106.792ZM110.131 36.9068C110.065 36.2756 109.788 35.7842 109.298 35.4326C108.813 35.0809 108.183 34.905 107.406 34.905C106.86 34.905 106.391 34.9893 106.001 35.1579C105.61 35.3266 105.311 35.5554 105.104 35.8445C104.897 36.1335 104.791 36.4635 104.786 36.8345C104.786 37.1428 104.854 37.4102 104.991 37.6366C105.132 37.8631 105.323 38.0558 105.563 38.2147C105.803 38.3689 106.069 38.499 106.361 38.605C106.653 38.711 106.947 38.8001 107.243 38.8723L108.599 39.2192C109.145 39.3493 109.67 39.5251 110.174 39.7467C110.682 39.9684 111.136 40.2478 111.537 40.585C111.941 40.9223 112.261 41.3293 112.497 41.8063C112.732 42.2832 112.85 42.8421 112.85 43.4828C112.85 44.35 112.633 45.1136 112.2 45.7736C111.767 46.4288 111.141 46.9419 110.322 47.3129C109.508 47.679 108.521 47.8621 107.363 47.8621C106.238 47.8621 105.262 47.6838 104.433 47.3273C103.609 46.9708 102.964 46.4505 102.498 45.7664C102.037 45.0823 101.788 44.2488 101.75 43.266H104.327C104.365 43.7815 104.52 44.2103 104.793 44.5523C105.066 44.8944 105.422 45.1497 105.859 45.3183C106.302 45.487 106.796 45.5713 107.342 45.5713C107.912 45.5713 108.411 45.4846 108.839 45.3111C109.272 45.1329 109.611 44.8872 109.856 44.574C110.101 44.2561 110.226 43.8851 110.23 43.4611C110.226 43.0757 110.115 42.7578 109.898 42.5073C109.682 42.2519 109.378 42.0399 108.987 41.8713C108.601 41.6979 108.15 41.5437 107.632 41.4088L105.987 40.9752C104.796 40.6621 103.854 40.1876 103.162 39.5516C102.475 38.9109 102.131 38.0606 102.131 37.0007C102.131 36.1287 102.362 35.3651 102.823 34.7099C103.289 34.0547 103.922 33.5464 104.723 33.1851C105.523 32.819 106.429 32.6359 107.441 32.6359C108.467 32.6359 109.366 32.819 110.138 33.1851C110.915 33.5464 111.525 34.0499 111.967 34.6955C112.41 35.3362 112.638 36.0733 112.652 36.9068H110.131Z" fill="#005761"/>
<circle cx="174.362" cy="26.8265" r="22.3538" fill="#C7DCDE"/>
<path d="M193.633 26.8291C193.633 37.472 185.005 46.0997 174.362 46.0997C163.72 46.0997 155.092 37.472 155.092 26.8291C155.092 16.1863 163.72 7.55859 174.362 7.55859C185.005 7.55859 193.633 16.1863 193.633 26.8291ZM156.38 26.8291C156.38 36.7602 164.431 44.811 174.362 44.811C184.293 44.811 192.344 36.7602 192.344 26.8291C192.344 16.898 184.293 8.8473 174.362 8.8473C164.431 8.8473 156.38 16.898 156.38 26.8291Z" fill="#E6F7F9"/>
<path d="M173.726 38.3883V15.2637H175.173V38.3883H173.726ZM177.901 22.6618C177.818 21.8729 177.471 21.2586 176.859 20.819C176.253 20.3794 175.465 20.1596 174.494 20.1596C173.811 20.1596 173.226 20.265 172.737 20.4758C172.249 20.6865 171.875 20.9726 171.616 21.3339C171.357 21.6952 171.225 22.1077 171.219 22.5714C171.219 22.9568 171.304 23.2911 171.475 23.5741C171.652 23.8571 171.89 24.098 172.19 24.2967C172.49 24.4894 172.823 24.652 173.187 24.7845C173.552 24.917 173.92 25.0284 174.291 25.1188L175.985 25.5523C176.668 25.7149 177.324 25.9347 177.953 26.2118C178.589 26.4888 179.157 26.838 179.657 27.2596C180.163 27.6811 180.563 28.19 180.857 28.7862C181.152 29.3824 181.299 30.0809 181.299 30.8819C181.299 31.9658 181.028 32.9203 180.487 33.7453C179.945 34.5643 179.163 35.2057 178.139 35.6694C177.121 36.1271 175.888 36.3559 174.441 36.3559C173.034 36.3559 171.813 36.1331 170.778 35.6874C169.748 35.2418 168.942 34.5914 168.359 33.7363C167.783 32.8812 167.471 31.8394 167.424 30.6109H170.645C170.692 31.2552 170.887 31.7912 171.228 32.2187C171.569 32.6463 172.013 32.9655 172.561 33.1763C173.114 33.387 173.732 33.4924 174.414 33.4924C175.126 33.4924 175.75 33.384 176.285 33.1672C176.827 32.9444 177.25 32.6373 177.556 32.2458C177.862 31.8484 178.018 31.3847 178.024 30.8548C178.018 30.373 177.88 29.9755 177.609 29.6624C177.339 29.3432 176.959 29.0782 176.471 28.8675C175.988 28.6507 175.423 28.458 174.776 28.2894L172.72 27.7474C171.231 27.3559 170.054 26.7628 169.189 25.9679C168.33 25.1669 167.9 24.104 167.9 22.7792C167.9 21.6892 168.189 20.7347 168.765 19.9157C169.348 19.0967 170.139 18.4614 171.14 18.0097C172.14 17.5521 173.273 17.3232 174.538 17.3232C175.82 17.3232 176.944 17.5521 177.909 18.0097C178.88 18.4614 179.642 19.0907 180.195 19.8976C180.748 20.6986 181.034 21.6199 181.051 22.6618H177.901Z" fill="#005761"/>
</g>
<defs>
<clipPath id="clip0_1353_8678">
<rect width="201.185" height="201.185" fill="white"/>
</clipPath>
</defs>
</svg>
