<svg width="203" height="202" viewBox="0 0 203 202" fill="none" xmlns="http://www.w3.org/2000/svg">
<g clip-path="url(#clip0_1353_8725)">
<path d="M157.895 161.278C158.935 142.186 161.038 124.764 165.617 114.29C167.082 110.941 169.895 108.404 173.369 107.264C182.771 104.181 192.547 105.579 190.932 114.254L170.118 168.218L157.895 161.278Z" fill="#005761"/>
<path d="M123.954 148.107C123.954 148.107 119.848 148.746 115.24 151.821C114.515 152.309 114.114 153.147 114.228 154.015C114.781 158.388 117.049 172.534 124.542 186.349C124.937 187.08 125.052 187.926 124.88 188.736L123.58 194.787L121.169 197.046H127.384L131.526 185.861L129.753 185.302C128.382 184.872 127.442 183.61 127.413 182.169L127.205 170.168C127.384 164.819 123.925 161.134 123.925 161.134L133.851 160.654L123.954 148.107Z" fill="#FFB8BC"/>
<path d="M118.727 198.137C118.16 198.876 124.821 199.851 128.18 198.238C128.18 198.238 132.845 190.136 132.845 185.964C132.845 185.964 132.472 185.11 129.737 185.304C129.737 185.304 128.173 194.897 126.522 195.972C124.871 197.047 121.9 196.08 121.9 196.08C121.9 196.08 119.567 197.047 118.727 198.137Z" fill="#005761"/>
<path d="M135.497 161.751C135.447 161.658 124.81 160.475 124.81 160.475C124.81 160.475 125.155 163.701 124.071 168.153C122.98 172.598 107.369 191.863 107.369 191.863L109.006 197.046C103.946 198.81 98.9646 199.089 94.0625 197.942L104.211 191.863C104.211 191.863 113.707 159.543 119.521 153.779L130.179 150.094L135.497 161.751Z" fill="#FF9FA8"/>
<path d="M161.22 144.738C161.22 144.738 167.349 153.843 167.852 157.994C168.354 162.146 166.172 163.83 159.748 164.11C153.317 164.39 129.08 164.382 129.08 164.382C120.704 158.181 120.316 154.546 118.701 149.872C118.701 149.872 119.928 147.778 134.965 147.004C137.929 146.846 161.22 144.738 161.22 144.738Z" fill="#F04A3D"/>
<path d="M108.394 195.764C108.394 195.764 110.238 197.549 108.99 199.528C108.99 199.528 94.4052 202.109 90.4434 200.94C90.4434 200.94 91.2688 199.062 95.7259 196.932L95.3957 197.183C94.9794 197.506 95.2235 198.165 95.7474 198.137C98.6901 197.972 104.769 197.434 108.394 195.764Z" fill="#005761"/>
<path d="M143.463 83.8242C156.167 83.8959 160.201 94.9654 159.411 97.0015C159.304 97.274 159.526 97.5536 159.821 97.5321C161.306 97.403 164.515 97.4676 166.029 100.235C167.364 102.68 165.728 104.479 164.486 105.404C164.184 105.626 164.321 106.1 164.694 106.121C167.357 106.25 173.027 107.168 173.02 112.624C173.013 117.714 169.331 118.503 167.22 118.531C166.862 118.538 166.704 118.976 166.969 119.219C167.874 120.044 168.821 121.585 167.881 124.131C166.409 128.124 158.378 126.36 157.438 126.145C157.38 126.131 157.323 126.102 157.28 126.066L145.624 116.409C145.531 116.33 145.48 116.223 145.48 116.101L145.523 100.55C145.523 100.421 145.581 100.307 145.688 100.235L139.336 86.8425C136.336 85.8388 143.313 83.8242 143.463 83.8242Z" fill="#00363D"/>
<path d="M143.484 141.216C143.484 141.216 137.634 133.301 134.957 128.26C133.507 125.536 133.478 122.288 134.856 119.528C137.369 114.488 141.144 109.484 141.553 108.667C142.177 107.419 150.044 108.86 150.044 108.86C150.044 108.86 163.774 121.636 166.867 139.731L159.654 140.656C159.654 140.656 156.798 133.164 153.561 128.146C153.561 128.146 158.872 138.491 158.456 142.277L143.484 141.216Z" fill="#F04A3D"/>
<path d="M141.885 101.167C141.921 101.454 142.775 108.624 142.911 108.796C143.047 108.968 147.354 109.964 149.651 108.925L146.32 98.1133L141.885 101.167Z" fill="#FFA4AC"/>
<path d="M135.182 90.9654C135.182 90.9654 133.503 94.6935 135.326 100.422C137.149 106.15 140.264 106.695 142.259 105.311C144.254 103.928 146.86 101.447 147.254 96.2923C147.649 91.1303 137.493 86.2551 135.182 90.9654Z" fill="#FFB8BC"/>
<path d="M143.407 95.8989C143.407 95.8989 140.069 88.1344 134.83 92.8591L134.399 94.8378C134.399 94.8378 129.497 93.3609 131.177 88.9302C132.863 84.4924 137.694 82.3846 142.926 85.3527C148.151 88.3208 150.986 90.9233 150.649 94.974C150.304 99.0319 147.283 97.598 147.283 97.598C147.283 97.598 146.737 94.6084 145.316 94.0563C143.895 93.5043 143.888 95.7627 143.888 95.7627L143.407 95.8989Z" fill="#00363D"/>
<path d="M144.593 96.0145C144.593 96.0145 142.856 92.0283 145.376 91.9279C147.895 91.8204 146.811 95.7636 146.287 97.1974L144.593 96.0145Z" fill="#FFB8BC"/>
<path d="M129.08 139.194L135.116 135.129L141.727 139.395C141.727 139.395 148.638 141.746 152.902 141.359C157.165 140.972 157.165 140.972 157.165 140.972L166.862 139.732L167.586 144.062C167.773 145.159 167.199 146.249 166.194 146.722C165.297 147.145 164.256 147.604 163.617 147.761C162.311 148.077 133.831 142.148 133.831 142.148L129.08 139.194Z" fill="#FFB8BC"/>
<path d="M154.509 148.158C154.487 148.158 154.466 148.158 154.437 148.158L124.027 148.122C123.273 148.122 122.663 147.512 122.67 146.76C122.67 146.007 123.28 145.39 124.034 145.405L154.444 145.44C155.198 145.44 155.808 146.05 155.801 146.803C155.801 147.534 155.226 148.129 154.509 148.158Z" fill="#157682"/>
<path d="M96.6957 120.586H122.017C123.883 120.586 125.584 121.661 126.381 123.353L138.087 148.152H106.615C105.409 148.152 104.332 147.421 103.887 146.303L94.8081 123.36C94.2913 122.02 95.2674 120.586 96.6957 120.586Z" fill="#157682"/>
<path d="M114.538 133.297C115.084 135.004 114.682 136.653 113.634 136.99C112.586 137.327 111.287 136.222 110.741 134.516C110.196 132.81 110.598 131.161 111.646 130.824C112.694 130.487 113.985 131.598 114.538 133.297Z" fill="#C7DCDE"/>
<path d="M154.186 201.06H156.992V170.762H154.186V201.06Z" fill="#0E5C66"/>
<path d="M143.303 201.643H167.871V199.958C167.871 199.887 167.813 199.822 167.734 199.822H143.453C143.375 199.822 143.31 199.887 143.31 199.966V201.643H143.303Z" fill="#0E5C66"/>
<path d="M138.66 169.644C138.66 171.408 140.103 172.849 141.868 172.849H168.281C170.047 172.849 171.489 171.408 171.489 169.644V166.748C171.489 164.984 170.047 163.543 168.281 163.543H141.868C140.103 163.543 138.66 164.984 138.66 166.748V169.644Z" fill="#005761"/>
<path d="M179.731 200.896C179.853 200.896 179.982 200.868 180.104 200.81C180.578 200.588 180.8 199.986 180.599 199.462L160.898 149.52C160.689 149.004 160.137 148.76 159.663 148.983C159.189 149.205 158.967 149.807 159.168 150.331L178.87 200.273C179.02 200.667 179.365 200.896 179.731 200.896Z" fill="#00363D"/>
<path d="M157.532 200.896C157.899 200.896 158.243 200.667 158.394 200.279L178.096 150.337C178.304 149.821 178.081 149.212 177.6 148.99C177.127 148.767 176.574 149.004 176.366 149.527L156.664 199.469C156.456 199.985 156.678 200.595 157.159 200.817C157.281 200.867 157.41 200.896 157.532 200.896Z" fill="#00363D"/>
<path d="M95.8578 200.896C95.9798 200.896 96.109 200.868 96.231 200.81C96.7047 200.588 96.9272 199.986 96.7262 199.462L77.0245 149.52C76.8163 149.004 76.2708 148.76 75.79 148.983C75.3163 149.205 75.0938 149.807 75.2947 150.331L94.9965 200.273C95.1472 200.667 95.4989 200.896 95.8578 200.896Z" fill="#00363D"/>
<path d="M73.6653 200.896C74.0313 200.896 74.3758 200.667 74.5266 200.279L94.2283 150.337C94.4365 149.821 94.214 149.212 93.7331 148.99C93.2594 148.767 92.7068 149.004 92.4986 149.527L72.7968 199.469C72.5887 199.985 72.8112 200.595 73.2921 200.817C73.4141 200.867 73.5433 200.896 73.6653 200.896Z" fill="#00363D"/>
<path d="M71.3529 148.094C71.2883 147.8 71.3745 147.506 71.597 147.276C71.8123 147.047 72.1353 146.918 72.4798 146.918H188.028C188.48 146.918 188.896 147.119 189.133 147.441C189.37 147.764 189.406 148.18 189.219 148.531L187.97 150.883C187.683 151.42 187.059 151.764 186.377 151.764H73.2693C72.6305 151.764 72.085 151.37 71.963 150.832L71.3529 148.094Z" fill="#00363D"/>
<path d="M160.76 51.2834C160.76 51.2834 152.054 31.202 158.643 10.038C158.686 9.90174 158.93 9.92324 158.951 10.0738C160.537 22.8712 161.011 36.7296 160.76 51.2834Z" fill="#9DCFD3"/>
<path d="M160.724 50.8622C160.674 50.8622 160.631 50.8335 160.617 50.7833C159.074 45.3059 158.485 35.9929 158.263 29.1461C158.026 21.733 158.148 15.5314 158.155 15.4669C158.155 15.4024 158.198 15.3594 158.27 15.3594C158.334 15.3594 158.377 15.4096 158.377 15.4741C158.377 15.5386 158.248 21.733 158.485 29.1389C158.708 35.9714 159.289 45.2629 160.832 50.7188C160.846 50.7761 160.818 50.8407 160.753 50.855C160.746 50.8622 160.739 50.8622 160.724 50.8622Z" fill="url(#paint0_linear_1353_8725)"/>
<path d="M162.757 48.0164C162.757 48.0164 157.381 23.3752 167.544 -1.56711C167.608 -1.73201 167.852 -1.68182 167.845 -1.50976C167.293 13.9403 165.448 30.5804 162.757 48.0164Z" fill="#9DCFD3"/>
<path d="M162.807 47.4796C162.75 47.4796 162.699 47.4366 162.699 47.3792C161.486 34.6249 166.094 5.19457 166.137 4.90062C166.145 4.84327 166.202 4.80025 166.267 4.80742C166.331 4.81459 166.367 4.87195 166.36 4.93647C166.317 5.23042 161.716 34.6392 162.922 47.3649C162.929 47.4294 162.886 47.4796 162.821 47.4868C162.814 47.4796 162.814 47.4796 162.807 47.4796Z" fill="url(#paint1_linear_1353_8725)"/>
<path d="M163.609 54.698C163.609 54.698 161.032 33.197 173.829 13.854C173.916 13.7249 174.145 13.8038 174.124 13.9544C171.863 26.8162 168.195 40.4954 163.609 54.698Z" fill="#9DCFD3"/>
<path d="M163.732 54.2758C163.667 54.2758 163.617 54.2256 163.617 54.1611C163.732 48.4686 165.928 39.2273 167.759 32.4737C169.732 25.1609 171.706 19.1171 171.728 19.0526C171.749 18.9953 171.807 18.9594 171.871 18.9809C171.929 19.0024 171.964 19.0598 171.943 19.1243C171.921 19.1817 169.948 25.2255 167.974 32.5311C166.151 39.2703 163.955 48.4973 163.847 54.1611C163.84 54.2256 163.797 54.2758 163.732 54.2758Z" fill="url(#paint2_linear_1353_8725)"/>
<path d="M157.071 42.7949H168.899C169.782 42.7949 170.45 43.6266 170.285 44.4941C169.581 48.2293 168.146 51.5272 166.66 54.2874C166.33 54.904 165.684 55.2983 164.981 55.2983H161.119C160.409 55.2983 159.755 54.9112 159.411 54.2874C157.552 50.9107 156.648 47.5697 155.894 44.2933C155.722 43.5405 156.296 42.7949 157.071 42.7949Z" fill="#C7DCDE"/>
<path d="M131.787 23.7126C131.787 23.7126 130.854 17.9269 133.696 16.0557C133.826 15.9697 133.991 16.0701 133.991 16.2206V17.3175C133.991 17.5828 134.306 17.719 134.493 17.5326C135.103 16.9591 136.201 16.0844 137.364 15.898C137.673 15.8478 137.917 16.1561 137.78 16.4429C137.07 17.9628 135.204 22.2214 135.275 25.0174L131.787 23.7126Z" fill="#C7DCDE"/>
<path d="M128.765 23.7121L126.863 54.096H138.261V24.5581C138.261 23.7121 137.715 22.9593 136.912 22.6797C135.404 22.1635 132.835 21.5255 130.316 21.97C129.469 22.1205 128.823 22.8375 128.765 23.7121Z" fill="#73AFB5"/>
<path opacity="0.38" d="M128.803 42.849L128.415 51.3232C128.386 52.0258 128.946 52.6137 129.65 52.6137H135.406C136.088 52.6137 136.64 52.0616 136.64 51.3805V42.8991C136.64 42.2181 136.088 41.666 135.406 41.666H130.03C129.37 41.6732 128.831 42.1894 128.803 42.849Z" fill="white"/>
<path d="M149.239 51.6625V22.6838C149.239 21.9023 148.73 21.1997 147.983 20.9703C144.624 19.9451 141.703 20.5186 140.174 20.9918C139.493 21.1997 139.033 21.8306 139.033 22.5404V54.0857H146.813C148.156 54.0929 149.239 53.0031 149.239 51.6625Z" fill="#73AFB5"/>
<path opacity="0.38" d="M140.039 23.2069L140.29 27.8455C140.319 28.4262 140.8 28.8779 141.381 28.8779H146.85C147.439 28.8779 147.919 28.4119 147.941 27.824L148.092 23.2499C148.106 22.7266 147.747 22.2606 147.238 22.153C145.91 21.8663 143.297 21.4719 140.878 22.0957C140.362 22.2247 140.01 22.6836 140.039 23.2069Z" fill="white"/>
<path opacity="0.38" d="M140.462 30.8698C140.505 31.4433 140.978 31.8807 141.545 31.8807H146.778C147.388 31.8807 147.876 31.3788 147.869 30.7694C147.854 30.1744 147.373 29.7012 146.778 29.7012H141.545C140.921 29.7083 140.418 30.2389 140.462 30.8698Z" fill="white"/>
<path d="M103.58 22.8102L103.178 53.9612H121.3L119.944 23.6419C119.908 22.7672 119.341 22.0073 118.516 21.7062C116.262 20.9032 111.36 19.7202 104.721 21.3764C104.053 21.5413 103.587 22.1292 103.58 22.8102Z" fill="#5CA0A7"/>
<path d="M114.49 23.5588L115.753 54.0574H126.555L127.373 23.2147C127.394 22.3687 126.856 21.6015 126.038 21.3578C122.528 20.3039 119.04 20.2035 115.595 21.7736C114.899 22.0962 114.461 22.7988 114.49 23.5588Z" fill="#73AFB5"/>
<path opacity="0.57" d="M115.472 24.7049L115.601 26.361C115.637 26.8629 116.075 27.2428 116.577 27.2142L125.398 26.698C125.865 26.6693 126.231 26.3037 126.266 25.8448L126.353 24.6977C126.396 24.16 125.965 23.7012 125.427 23.7012H116.39C115.859 23.7083 115.429 24.1672 115.472 24.7049Z" fill="white"/>
<path opacity="0.57" d="M115.84 28.6708V29.2731C115.84 29.7391 116.227 30.1119 116.694 30.0975L125.149 29.7462C125.587 29.7247 125.938 29.3663 125.938 28.9218V28.2765C125.938 27.8105 125.544 27.4305 125.077 27.452L116.622 27.8392C116.184 27.8679 115.84 28.2263 115.84 28.6708Z" fill="white"/>
<path d="M173.098 62.8836H102.488C101.016 62.8836 99.832 61.6935 99.832 60.2309V56.596C99.832 55.1263 101.023 53.9434 102.488 53.9434H173.098C174.57 53.9434 175.754 55.1335 175.754 56.596V60.2309C175.761 61.6935 174.57 62.8836 173.098 62.8836Z" fill="#005761"/>
<path d="M13.1833 96.1664C13.0469 95.9226 12.6809 96.0086 12.6737 96.2883C12.5589 100.626 12.6593 116.126 19.6285 122.37C27.7676 129.662 33.2152 130.938 33.1076 144.689C32.9999 158.296 31.263 182.608 34.0191 189.476C34.0693 189.605 34.1914 189.691 34.3349 189.705C34.5646 189.72 34.7512 189.512 34.7081 189.29C34.3421 187.21 32.8851 178.206 33.3372 169.789C33.854 160.203 38.0815 135.992 32.7344 118.098C27.7246 101.328 16.5208 102.232 13.1833 96.1664Z" fill="#005761"/>
<path d="M33.8243 192.98C33.6376 192.958 33.4797 192.822 33.451 192.629C33.0993 190.614 31.305 179.466 33.975 173.293C36.9105 166.482 41.9705 159.979 38.1522 144.536C35.9918 135.79 36.5947 130.886 36.9607 129.18C37.0182 128.922 37.3627 128.864 37.4919 129.101C39.1068 131.99 45.8391 144.156 47.0305 147.985C48.3871 152.344 49.6933 160.911 42.9897 165.349C36.3937 169.722 34.0611 179.559 34.2908 192.449C34.298 193.36 34.1257 193.009 33.8243 192.98Z" fill="#005761"/>
<path d="M31.549 184.4C31.8217 184.421 32.4031 186.751 32.5323 186.457C33.6448 183.841 38.1521 168.649 32.3744 158.275C26.3454 147.456 20.6825 145.183 20.3237 139.419C20.3021 139.068 19.9074 138.975 19.771 139.29C17.8259 143.785 11.9692 159.565 21.0916 169.029C30.1422 178.413 31.1399 181.783 30.9389 183.525C30.8815 183.97 31.1686 184.371 31.549 184.4Z" fill="#C7DCDE"/>
<path opacity="0.47" d="M16.9073 103.176C17.5676 103.578 18.1992 104.022 18.8164 104.481C19.4337 104.94 20.0294 105.435 20.6179 105.936C21.2065 106.438 21.7663 106.969 22.3261 107.499C22.6061 107.765 22.8716 108.044 23.1443 108.324C23.4099 108.603 23.6755 108.883 23.941 109.17C24.9818 110.317 25.9579 111.514 26.8622 112.769L27.1995 113.242L27.5225 113.722C27.7378 114.045 27.9604 114.36 28.1613 114.69L28.7786 115.672L29.3599 116.676C30.1064 118.031 30.8026 119.415 31.3839 120.849C31.5347 121.207 31.6639 121.573 31.8002 121.931L32.0012 122.476C32.0658 122.655 32.1232 122.842 32.1878 123.028C32.3098 123.394 32.4318 123.759 32.5467 124.132L32.8553 125.251C32.9629 125.624 33.0419 126.003 33.128 126.376C33.207 126.756 33.3075 127.129 33.372 127.509C33.5012 128.269 33.6448 129.029 33.7166 129.796C33.9175 131.323 33.9534 132.872 33.9391 134.406C33.9391 134.478 33.8816 134.528 33.8099 134.528C33.7453 134.528 33.6879 134.471 33.6879 134.406C33.5658 131.352 33.1208 128.326 32.2596 125.408L31.9294 124.319L31.5562 123.243C31.4916 123.064 31.4342 122.885 31.3624 122.706L31.1471 122.175C31.0035 121.824 30.8743 121.465 30.7164 121.121C30.1207 119.723 29.4317 118.375 28.6781 117.056C27.1708 114.418 25.3621 111.966 23.3597 109.672C23.1085 109.385 22.8573 109.098 22.606 108.818C22.3477 108.539 22.0893 108.259 21.8309 107.987C21.307 107.435 20.7758 106.89 20.2304 106.359C19.1394 105.298 18.0054 104.266 16.8211 103.312C16.7852 103.284 16.7781 103.234 16.8068 103.198C16.8283 103.162 16.8785 103.155 16.9073 103.176Z" fill="white"/>
<path opacity="0.47" d="M19.6632 143.549C19.6417 145.213 19.936 146.855 20.4168 148.439C20.6609 149.228 20.9551 150.002 21.314 150.748C21.6657 151.493 22.0748 152.217 22.5341 152.898C23.0007 153.579 23.5031 154.232 24.0701 154.82C24.6371 155.408 25.24 155.952 25.8788 156.454L26.3669 156.813L26.8262 157.15C26.9841 157.257 27.1276 157.379 27.2784 157.494C27.4219 157.616 27.5798 157.723 27.7162 157.852C28.2976 158.34 28.8287 158.885 29.3239 159.465C31.3264 161.774 32.4819 164.828 32.7834 167.99C33.1135 171.159 32.7116 174.414 31.9652 177.554C31.9436 177.633 31.9939 177.712 32.0656 177.733C32.1374 177.755 32.2092 177.712 32.2307 177.64C32.4819 176.866 32.7116 176.084 32.8982 175.288C33.0848 174.493 33.2499 173.69 33.3791 172.872C33.5083 172.055 33.5944 171.238 33.6303 170.406C33.6734 169.582 33.6734 168.743 33.616 167.911C33.5011 166.248 33.1853 164.584 32.5896 163.022C32.0011 161.459 31.1685 159.982 30.0991 158.734C29.5679 158.103 29.0009 157.515 28.3837 156.992C28.233 156.856 28.075 156.734 27.9171 156.605C27.7592 156.476 27.6013 156.347 27.4363 156.232L26.496 155.544C25.2903 154.633 24.2136 153.536 23.3093 152.296C22.8571 151.672 22.4408 151.013 22.0676 150.325C21.7016 149.636 21.3714 148.919 21.0843 148.181C20.5173 146.704 20.0939 145.141 19.8929 143.549V143.542C19.8857 143.478 19.8283 143.428 19.7637 143.442C19.7063 143.442 19.6632 143.492 19.6632 143.549Z" fill="white"/>
<path d="M23.4692 183.785H39.5177C40.7163 183.785 41.6207 184.918 41.391 186.094C40.4292 191.162 38.4914 195.636 36.4745 199.379C36.0224 200.217 35.1539 200.748 34.1993 200.748H28.9598C27.9909 200.748 27.1081 200.225 26.6416 199.379C24.1223 194.805 22.895 190.259 21.8687 185.814C21.639 184.796 22.4141 183.785 23.4692 183.785Z" fill="#00363D"/>
<circle cx="26.5185" cy="31.6377" r="16.5498" fill="#C7DCDE"/>
<path d="M40.3095 31.6372C40.3095 39.254 34.1349 45.4287 26.5181 45.4287C18.9012 45.4287 12.7266 39.254 12.7266 31.6372C12.7266 24.0204 18.9012 17.8457 26.5181 17.8457C34.1349 17.8457 40.3095 24.0204 40.3095 31.6372ZM13.8552 31.6372C13.8552 38.6307 19.5246 44.3 26.5181 44.3C33.5115 44.3 39.1809 38.6307 39.1809 31.6372C39.1809 24.6437 33.5115 18.9744 26.5181 18.9744C19.5246 18.9744 13.8552 24.6437 13.8552 31.6372Z" fill="#E6F7F9"/>
<path d="M22.7217 25.3247V38.0742H20.4121V27.572H20.3374L17.3555 29.477V27.3604L20.5242 25.3247H22.7217Z" fill="#F04A3D"/>
<path d="M30.4961 38.317C29.471 38.317 28.5912 38.0576 27.8566 37.5388C27.1262 37.0159 26.5638 36.2626 26.1695 35.279C25.7794 34.2912 25.5844 33.1022 25.5844 31.7119C25.5885 30.3216 25.7856 29.1387 26.1758 28.1634C26.57 27.184 27.1324 26.437 27.8628 25.9223C28.5974 25.4077 29.4752 25.1504 30.4961 25.1504C31.5171 25.1504 32.3949 25.4077 33.1294 25.9223C33.864 26.437 34.4264 27.184 34.8165 28.1634C35.2108 29.1429 35.4079 30.3257 35.4079 31.7119C35.4079 33.1064 35.2108 34.2975 34.8165 35.2852C34.4264 36.2688 33.864 37.02 33.1294 37.5388C32.399 38.0576 31.5212 38.317 30.4961 38.317ZM30.4961 36.3684C31.293 36.3684 31.9217 35.9762 32.3824 35.1918C32.8472 34.4033 33.0796 33.2433 33.0796 31.7119C33.0796 30.6992 32.9738 29.8484 32.7622 29.1595C32.5505 28.4706 32.2517 27.9518 31.8657 27.6032C31.4797 27.2504 31.0232 27.074 30.4961 27.074C29.7034 27.074 29.0768 27.4683 28.6161 28.2568C28.1554 29.0412 27.923 30.1929 27.9189 31.7119C27.9147 32.7287 28.0164 33.5836 28.2239 34.2767C28.4356 34.9698 28.7344 35.4927 29.1203 35.8455C29.5063 36.1941 29.9649 36.3684 30.4961 36.3684Z" fill="#F04A3D"/>
</g>
<defs>
<linearGradient id="paint0_linear_1353_8725" x1="158.121" y1="33.1112" x2="160.838" y2="33.1112" gradientUnits="userSpaceOnUse">
<stop stop-color="#DAE3FE"/>
<stop offset="1" stop-color="#E9EFFD"/>
</linearGradient>
<linearGradient id="paint1_linear_1353_8725" x1="162.496" y1="26.144" x2="166.362" y2="26.144" gradientUnits="userSpaceOnUse">
<stop stop-color="#DAE3FE"/>
<stop offset="1" stop-color="#E9EFFD"/>
</linearGradient>
<linearGradient id="paint2_linear_1353_8725" x1="163.621" y1="36.6277" x2="171.947" y2="36.6277" gradientUnits="userSpaceOnUse">
<stop stop-color="#DAE3FE"/>
<stop offset="1" stop-color="#E9EFFD"/>
</linearGradient>
<clipPath id="clip0_1353_8725">
<rect width="201.185" height="201.185" fill="white" transform="translate(0.916016)"/>
</clipPath>
</defs>
</svg>
