<svg width="202" height="202" viewBox="0 0 202 202" fill="none" xmlns="http://www.w3.org/2000/svg">
<path d="M11.1641 194.479C11.7229 179.111 15.3359 150.889 62.2981 150.889C146.964 150.889 194.745 125.741 162.89 114.005C131.036 102.269 40.8429 129.987 34.6356 109.814C31.2825 98.9162 34.0768 93.0483 52.2392 85.5039" stroke="#005761" stroke-width="1.00592" stroke-dasharray="6.04 6.04"/>
<path d="M102.2 42.8459L90.8333 50.0617L112.599 55.7928L147.1 33.7263L102.2 42.8459Z" fill="#F04A3D"/>
<path d="M96.8431 42.1298L87.915 47.9265L90.8353 50.0606L102.202 42.8448L96.8431 42.1298Z" fill="#FF6559"/>
<path d="M187.668 27.4341L67.6091 88.0725L61.7603 76.5419L162.78 16.2843C169.281 12.4545 178.052 12.5531 185.6 13.0874C190.95 13.3915 193.344 16.6323 192.213 21.725C191.575 24.0673 189.975 26.2918 187.668 27.4341Z" fill="#C7DCDE"/>
<path opacity="0.3" d="M70.4571 86.5052L66.6602 88.4996L42.2431 73.5034L48.3494 70.5037L67.5835 72.9967L70.4571 86.5052Z" fill="#005761"/>
<path opacity="0.3" d="M169.851 13.5386L168.632 14.2482C166.333 15.8014 165.566 18.5574 166.837 20.4504C167.404 21.3983 168.511 21.9242 169.61 22.0393C170.708 22.1544 172.072 21.853 173.154 21.1462L182.891 14.6482C183.565 14.0866 184.238 13.525 184.636 12.8319C179.833 12.5168 174.626 12.4839 169.851 13.5386Z" fill="#005761"/>
<path d="M118.148 79.7987L104.988 86.3652L111.029 59.5236L150.916 39.5418L118.148 79.7987Z" fill="#F04A3D"/>
<path d="M112.502 78.5411L102.054 83.6831L104.985 86.365L118.146 79.7985L112.502 78.5411Z" fill="#FF6559"/>
<path fill-rule="evenodd" clip-rule="evenodd" d="M43.2177 150.013C37.9716 142.454 30.272 136.317 20.7374 132.874C20.356 132.736 20.1653 132.667 19.7839 132.529L16.0979 142.735C16.4793 142.873 16.67 142.942 17.0514 143.079C23.535 145.421 28.9669 149.48 32.9763 154.495C35.3572 157.452 36.965 160.76 38.248 164.369C41.3509 162.344 44.8918 160.896 48.4224 160.073C54.7774 158.593 61.8074 158.824 68.4816 161.235C68.6723 161.304 68.8631 161.373 69.0538 161.442L72.7398 151.236C72.5491 151.167 72.3583 151.098 72.1676 151.029C62.4423 147.517 52.4075 147.249 43.2177 150.013Z" fill="#F04A3D"/>
</svg>
