<svg width="220" height="220" viewBox="0 0 220 220" fill="none" xmlns="http://www.w3.org/2000/svg">
<g clip-path="url(#clip0_1353_8821)">
<path d="M97.9019 130.981L97.0731 128.633C95.899 125.317 92.5837 123.314 89.1303 123.729L56.116 127.597C51.9719 128.08 49.0711 131.81 49.5546 135.954L58.9478 216.279C59.2931 219.111 61.8486 221.114 64.6804 220.769L182.786 206.955C185.618 206.61 187.621 204.054 187.275 201.223L179.125 131.81C178.78 128.978 176.225 126.975 173.393 127.32L104.809 135.332C101.77 135.678 98.8689 133.882 97.9019 130.981Z" fill="#B1E4E9"/>
<path d="M101.185 96.0629L63.8633 103.503L74.1119 154.914L111.434 147.474L101.185 96.0629Z" fill="#337077"/>
<g opacity="0.4">
<path d="M96.1762 108.467L73.1767 113.026C72.0716 113.233 70.9665 112.542 70.7593 111.437C70.5521 110.332 71.2428 109.227 72.3479 109.02L95.3474 104.461C96.4525 104.254 97.5575 104.945 97.7647 106.05C98.041 107.155 97.2813 108.191 96.1762 108.467Z" fill="#9FC2C7"/>
<path d="M97.9028 116.963L74.9032 121.522C73.7981 121.729 72.6931 121.038 72.4859 119.933C72.2787 118.828 72.9693 117.723 74.0744 117.516L97.0739 112.958C98.179 112.75 99.2841 113.441 99.4913 114.546C99.6985 115.651 99.0078 116.756 97.9028 116.963Z" fill="#9FC2C7"/>
<path d="M99.5629 125.456L76.5634 130.015C75.4583 130.222 74.3532 129.531 74.146 128.426C73.9388 127.321 74.6295 126.216 75.7346 126.009L98.8032 121.381C99.9082 121.174 101.013 121.865 101.221 122.97C101.428 124.144 100.668 125.249 99.5629 125.456Z" fill="#9FC2C7"/>
<path d="M101.289 133.954L78.2899 138.512C77.1849 138.719 76.0798 138.029 75.8726 136.924C75.6654 135.819 76.3561 134.713 77.4611 134.506L100.461 129.948C101.566 129.741 102.671 130.431 102.878 131.536C103.085 132.641 102.395 133.746 101.289 133.954Z" fill="#9FC2C7"/>
<path d="M96.6606 143.693L79.9462 147.008C78.8411 147.215 77.736 146.525 77.5288 145.42C77.3216 144.315 78.0123 143.209 79.1174 143.002L95.8318 139.687C96.9368 139.48 98.0419 140.171 98.2491 141.276C98.5254 142.381 97.7657 143.486 96.6606 143.693Z" fill="#9FC2C7"/>
</g>
<path d="M154.335 86.1716L116.629 91.332L123.737 143.272L161.444 138.112L154.335 86.1716Z" fill="#76ADB4"/>
<g opacity="0.4">
<path d="M148.599 98.1791L125.392 101.356C124.287 101.494 123.251 100.735 123.044 99.6295C122.905 98.5244 123.665 97.4884 124.77 97.2812L147.977 94.1041C149.082 93.966 150.118 94.7257 150.325 95.8308C150.532 97.0049 149.773 98.0409 148.599 98.1791Z" fill="#0D4A51"/>
<path d="M149.772 106.812L126.566 109.989C125.461 110.127 124.425 109.367 124.217 108.262C124.079 107.157 124.839 106.121 125.944 105.914L149.151 102.737C150.256 102.599 151.292 103.359 151.499 104.464C151.706 105.638 150.947 106.674 149.772 106.812Z" fill="#0D4A51"/>
<path d="M134.165 117.658L127.741 118.555C126.636 118.694 125.6 117.934 125.393 116.829C125.255 115.724 126.015 114.688 127.12 114.48L133.543 113.583C134.648 113.444 135.684 114.204 135.891 115.309C136.03 116.483 135.27 117.519 134.165 117.658Z" fill="#0D4A51"/>
<path d="M146.526 115.998L140.103 116.896C138.998 117.034 137.962 116.275 137.754 115.17C137.616 114.065 138.376 113.029 139.481 112.821L145.904 111.923C147.01 111.785 148.046 112.545 148.253 113.65C148.46 114.824 147.7 115.86 146.526 115.998Z" fill="#0D4A51"/>
<path d="M152.122 123.939L128.915 127.116C127.81 127.254 126.774 126.494 126.567 125.389C126.429 124.284 127.189 123.248 128.294 123.041L151.5 119.864C152.605 119.726 153.642 120.485 153.849 121.591C154.056 122.765 153.296 123.801 152.122 123.939Z" fill="#0D4A51"/>
<path d="M146.942 133.405L130.089 135.684C128.984 135.822 127.948 135.062 127.741 133.957C127.603 132.852 128.362 131.816 129.468 131.609L146.32 129.33C147.425 129.192 148.461 129.951 148.668 131.056C148.876 132.231 148.116 133.267 146.942 133.405Z" fill="#0D4A51"/>
</g>
<path d="M119.377 93.7212L81.4648 97.0254L86.0164 149.249L123.928 145.944L119.377 93.7212Z" fill="#005761"/>
<g opacity="0.4">
<path d="M113.092 105.494L89.7474 107.497C88.6423 107.566 87.6063 106.737 87.5372 105.632C87.4682 104.527 88.297 103.491 89.402 103.422L112.747 101.419C113.852 101.35 114.888 102.179 114.957 103.284C115.026 104.389 114.197 105.425 113.092 105.494Z" fill="#D6DEDF"/>
<path d="M113.852 114.127L90.5072 116.13C89.4021 116.199 88.3661 115.37 88.297 114.265C88.2279 113.16 89.0567 112.124 90.1618 112.055L113.507 110.052C114.612 109.983 115.648 110.812 115.717 111.917C115.786 113.022 114.957 114.058 113.852 114.127Z" fill="#D6DEDF"/>
<path d="M114.612 122.763L91.1986 124.835C90.0935 124.904 89.0575 124.075 88.9884 122.97C88.9193 121.865 89.7481 120.829 90.8532 120.76L114.198 118.757C115.303 118.688 116.339 119.517 116.408 120.622C116.546 121.658 115.718 122.694 114.612 122.763Z" fill="#D6DEDF"/>
<path d="M115.301 131.394L91.9564 133.397C90.8513 133.466 89.8153 132.638 89.7462 131.533C89.6771 130.427 90.506 129.391 91.611 129.322L114.956 127.319C116.061 127.25 117.097 128.079 117.166 129.184C117.304 130.289 116.475 131.325 115.301 131.394Z" fill="#D6DEDF"/>
<path d="M109.707 140.58L92.7161 142.1C91.6111 142.169 90.575 141.34 90.506 140.235C90.4369 139.13 91.2657 138.094 92.3708 138.025L109.361 136.574C110.467 136.505 111.503 137.334 111.572 138.439C111.641 139.475 110.812 140.511 109.707 140.58Z" fill="#D6DEDF"/>
</g>
<path d="M164.987 91.2099L126.977 93.0449L129.504 145.404L167.515 143.569L164.987 91.2099Z" fill="#005761"/>
<g opacity="0.4">
<path d="M158.195 102.666L134.782 103.771C133.676 103.84 132.71 102.942 132.64 101.837C132.571 100.732 133.469 99.7648 134.574 99.6957L157.988 98.5906C159.093 98.5216 160.06 99.4195 160.129 100.525C160.198 101.699 159.37 102.666 158.195 102.666Z" fill="#B5F4FB"/>
<path d="M158.612 111.369L135.198 112.474C134.092 112.543 133.126 111.645 133.056 110.54C132.987 109.435 133.885 108.468 134.99 108.399L158.404 107.294C159.509 107.225 160.476 108.123 160.545 109.228C160.614 110.333 159.786 111.3 158.612 111.369Z" fill="#B5F4FB"/>
<path d="M142.103 120.831L135.68 121.176C134.575 121.245 133.608 120.347 133.539 119.242C133.47 118.137 134.368 117.17 135.473 117.101L141.896 116.756C143.001 116.687 143.968 117.584 144.037 118.69C144.106 119.795 143.208 120.762 142.103 120.831Z" fill="#B5F4FB"/>
<path d="M154.605 120.21L148.182 120.555C147.077 120.624 146.11 119.726 146.041 118.621C145.972 117.516 146.87 116.549 147.975 116.48L154.398 116.135C155.503 116.066 156.47 116.963 156.539 118.068C156.608 119.243 155.71 120.141 154.605 120.21Z" fill="#B5F4FB"/>
<path d="M159.436 128.705L136.022 129.81C134.917 129.879 133.95 128.981 133.881 127.876C133.812 126.771 134.709 125.804 135.815 125.735L159.229 124.63C160.334 124.561 161.301 125.459 161.37 126.564C161.439 127.669 160.61 128.636 159.436 128.705Z" fill="#B5F4FB"/>
<path d="M153.499 137.614L136.508 138.443C135.403 138.512 134.436 137.614 134.367 136.509C134.298 135.404 135.196 134.437 136.301 134.368L153.292 133.539C154.397 133.47 155.364 134.368 155.433 135.473C155.502 136.647 154.604 137.614 153.499 137.614Z" fill="#B5F4FB"/>
</g>
<path d="M108.404 132.502L107.782 130.223C106.953 126.977 103.845 124.974 100.392 125.388L67.3774 129.256C63.2334 129.739 59.9872 133.4 60.1253 137.406L61.9902 216.005C62.0592 218.767 64.4075 220.77 67.2393 220.425L185.345 206.612C188.177 206.266 190.387 203.78 190.318 201.017L188.729 133.055C188.66 130.292 186.312 128.289 183.48 128.634L114.896 136.715C111.857 137.06 109.163 135.334 108.404 132.502Z" fill="#CEF2F5"/>
<path fill-rule="evenodd" clip-rule="evenodd" d="M187.879 21.0109C182.886 14.8588 175.895 10.1328 167.522 7.88912C167.187 7.79937 167.019 7.75449 166.684 7.66474L164.233 16.8145C164.568 16.9042 164.735 16.9491 165.07 17.0389C170.764 18.5646 175.678 21.6642 179.442 25.7039C181.675 28.0855 183.273 30.8315 184.614 33.8654C187.125 31.8636 190.049 30.3292 193.007 29.3387C198.331 27.5559 204.348 27.2068 210.21 28.7774C210.377 28.8223 210.545 28.8672 210.712 28.912L213.164 19.7623C212.996 19.7174 212.829 19.6725 212.661 19.6276C204.12 17.339 195.536 17.8917 187.879 21.0109Z" fill="#F04A3D"/>
<path fill-rule="evenodd" clip-rule="evenodd" d="M69.3539 46.0178C58.3833 40.8517 45.6056 38.9787 32.5696 41.4469C32.0482 41.5456 31.7875 41.595 31.266 41.6937L33.963 55.9378C34.4844 55.8391 34.7452 55.7897 35.2666 55.691C44.1311 54.0126 52.9644 55.0228 60.8375 58.0927C65.4994 59.8927 69.5262 62.6177 73.3904 65.9101C75.5228 61.4824 78.5354 57.4245 81.9558 54.0942C88.1126 48.0997 96.1769 43.6218 105.302 41.894C105.563 41.8447 105.824 41.7953 106.084 41.7459L103.387 27.5018C103.127 27.5512 102.866 27.6006 102.605 27.6499C89.3084 30.1675 77.8392 36.6314 69.3539 46.0178Z" fill="#F04A3D"/>
</g>
<defs>
<clipPath id="clip0_1353_8821">
<rect width="220" height="220" fill="white"/>
</clipPath>
</defs>
</svg>
