<svg width="202" height="202" viewBox="0 0 202 202" fill="none" xmlns="http://www.w3.org/2000/svg">
<g clip-path="url(#clip0_1353_8961)">
<path fill-rule="evenodd" clip-rule="evenodd" d="M155.285 62.982C144.095 53.4668 129.757 47.2429 113.751 46.0273C113.111 45.9787 112.791 45.9544 112.151 45.9058L110.818 63.4562C111.458 63.5048 111.778 63.5291 112.418 63.5777C123.303 64.4043 133.304 68.3733 141.535 74.4544C146.415 78.0344 150.262 82.4987 153.74 87.5769C157.624 83.0578 162.421 79.25 167.465 76.4237C176.545 71.3363 187.375 68.6285 198.58 69.4794C198.9 69.5037 199.22 69.5281 199.54 69.5524L200.873 52.002C200.553 51.9777 200.233 51.9533 199.912 51.929C183.586 50.6891 168.153 54.652 155.285 62.982Z" fill="#F04A3D"/>
<path d="M157.56 155.585L64.3346 195.95C62.8315 196.601 61.098 195.915 60.4472 194.412L3.25664 62.328C2.60584 60.825 3.29179 59.0914 4.79483 58.4406L98.0198 18.0755C99.5229 17.4247 101.256 18.1107 101.907 19.6137L159.098 151.698C159.733 153.164 159.063 154.934 157.56 155.585Z" fill="#005761"/>
<path opacity="0.3" d="M103.076 32.1661L11.5742 71.7852L62.9552 190.452L154.457 150.833L103.076 32.1661Z" fill="black"/>
<path d="M99.4961 23.3985L7.99414 63.0176L61.5497 186.707L153.052 147.087L99.4961 23.3985Z" fill="white"/>
<path d="M94.0727 39.7205L23.6133 70.2285L25.2641 74.0411L95.7235 43.5331L94.0727 39.7205Z" fill="#C7DCDE"/>
<path d="M137.54 140.615L67.0801 171.123L68.7309 174.936L139.19 144.428L137.54 140.615Z" fill="#C7DCDE"/>
<path d="M99.6013 98.1425L48.498 120.27L47.2267 117.333L98.3299 95.2062L99.6013 98.1425Z" fill="#C7DCDE"/>
<path d="M117.773 95.6732L108.095 99.8636L103.904 90.1855L113.582 85.9951L117.773 95.6732ZM108.303 99.3383L117.248 95.4653L113.375 86.5204L104.43 90.3934L108.303 99.3383Z" fill="#263238"/>
<path d="M113.648 96.1098L106.902 94.5036L107.459 92.1725L111.964 93.2258L114.244 85.6218L116.533 86.2847L113.648 96.1098Z" fill="#005761"/>
<path d="M90.824 77.8691L39.7207 99.9961L40.9666 102.874L92.0699 80.7465L90.824 77.8691Z" fill="#C7DCDE"/>
<path d="M110.421 78.6986L100.743 82.889L96.5527 73.2109L106.231 69.0205L110.421 78.6986ZM100.951 82.3637L109.896 78.4907L106.023 69.5458L97.0781 73.4188L100.951 82.3637Z" fill="#263238"/>
<path d="M106.285 79.1L99.5542 77.5305L100.112 75.1994L104.617 76.2527L106.88 68.612L109.186 69.3116L106.285 79.1Z" fill="#005761"/>
<path d="M83.4568 60.8574L32.3535 82.9844L33.8803 86.5106L84.9836 64.3836L83.4568 60.8574Z" fill="#C7DCDE"/>
<path d="M103.058 61.6888L93.3799 65.8793L89.1895 56.2012L98.8675 52.0107L103.058 61.6888ZM93.5878 65.3539L102.533 61.4809L98.6597 52.536L89.7148 56.409L93.5878 65.3539Z" fill="#263238"/>
<path d="M98.9411 62.1235L92.2105 60.5539L92.7524 58.1861L97.2729 59.2761L99.5367 51.6355L101.842 52.335L98.9411 62.1235Z" fill="#005761"/>
<path d="M106.803 114.771L55.6992 136.898L54.4508 134.015L105.554 111.888L106.803 114.771Z" fill="#C7DCDE"/>
<path d="M124.996 112.351L115.317 116.541L111.127 106.863L120.805 102.673L124.996 112.351ZM115.525 116.016L124.47 112.143L120.597 103.198L111.652 107.071L115.525 116.016Z" fill="#263238"/>
<path d="M112.633 128.24L61.5293 150.367L62.8421 153.399L113.945 131.272L112.633 128.24Z" fill="#C7DCDE"/>
<path d="M132.236 129.07L122.558 133.26L118.367 123.582L128.045 119.392L132.236 129.07ZM122.766 132.735L131.71 128.862L127.837 119.917L118.893 123.79L122.766 132.735Z" fill="#263238"/>
<path d="M66.0123 29.1026L34.7051 42.6582L39.8162 54.4626L71.1234 40.907L66.0123 29.1026Z" fill="#00363D"/>
<path d="M60.7646 32.7699L42.4716 40.6906L36.5664 32.582L59.4052 22.6931L60.7646 32.7699Z" fill="#00363D"/>
<rect x="63.0977" y="180.693" width="150.672" height="3.1049" transform="rotate(-76.9883 63.0977 180.693)" fill="#F04A3D"/>
<rect x="144.035" y="145.646" width="150.672" height="3.1049" transform="rotate(-150.1 144.035 145.646)" fill="#F04A3D"/>
</g>
<defs>
<clipPath id="clip0_1353_8961">
<rect width="201.185" height="201.185" fill="white" transform="translate(0.267578)"/>
</clipPath>
</defs>
</svg>
